<svg xmlns="http://www.w3.org/2000/svg" width="109.582" height="71.572" viewBox="0 0 109.582 71.572">
  <g id="Group_63" data-name="Group 63" transform="translate(-5.7 -24.423)">
    <path id="Path_1" data-name="Path 1" d="M171.024,84.212a28.4,28.4,0,1,1-28.4-28.4A28.4,28.4,0,0,1,171.024,84.212Z" transform="translate(-82.245 -23.789)" fill="none" stroke="#fff" stroke-width="5.705"/>
    <path id="Path_2" data-name="Path 2" d="M171.024,84.212a28.4,28.4,0,1,1-28.4-28.4,28.4,28.4,0,0,1,28.4,28.4" transform="translate(-82.245 -23.789)" fill="#7f2f03"/>
    <g id="Group_1" data-name="Group 1" transform="translate(31.228 31.271)">
      <path id="Path_3" data-name="Path 3" d="M140.269,111.008a29.152,29.152,0,1,1,29.152-29.152A29.185,29.185,0,0,1,140.269,111.008Zm0-56.8a27.646,27.646,0,1,0,27.646,27.645A27.677,27.677,0,0,0,140.269,54.21Z" transform="translate(-111.117 -52.704)" fill="#040504"/>
    </g>
    <g id="Group_2" data-name="Group 2" transform="translate(88.397 46.276)">
      <path id="Path_4" data-name="Path 4" d="M348.476,146.812l-1.282-.789a32.937,32.937,0,0,0,1.957-30.738l1.372-.62a34.441,34.441,0,0,1-2.047,32.148Z" transform="translate(-347.194 -114.664)" fill="#7f2f03"/>
    </g>
    <g id="Group_3" data-name="Group 3" transform="translate(26.017 46.276)">
      <path id="Path_5" data-name="Path 5" d="M94.682,146.812a34.442,34.442,0,0,1-2.047-32.148l1.372.62a32.936,32.936,0,0,0,1.957,30.738Z" transform="translate(-89.599 -114.664)" fill="#7f2f03"/>
    </g>
    <g id="Group_4" data-name="Group 4" transform="translate(32.425 80.27)">
      <path id="Path_6" data-name="Path 6" d="M117.692,256.876l-.886.758a.166.166,0,0,0-.063.1.234.234,0,0,0,.03.128l-.057.049-.657-.767.058-.049a.249.249,0,0,0,.124.05.166.166,0,0,0,.106-.047l2.081-1.78a.164.164,0,0,0,.063-.1.241.241,0,0,0-.03-.13l.058-.049,1.862,2.177a.162.162,0,0,0,.1.062.242.242,0,0,0,.131-.031l.049.058-.636.544-.049-.058a.238.238,0,0,0,.05-.124.16.16,0,0,0-.046-.1l-1.3-1.525-.587.5.852,1a.165.165,0,0,0,.1.063.254.254,0,0,0,.13-.03l.049.058-.622.532-.049-.058a.243.243,0,0,0,.05-.124.166.166,0,0,0-.047-.107Z" transform="translate(-116.059 -255.04)" fill="#fff"/>
    </g>
    <g id="Group_5" data-name="Group 5" transform="translate(34.981 82.952)">
      <path id="Path_7" data-name="Path 7" d="M126.9,268.343l1.933-1.943a.163.163,0,0,0,.053-.1.239.239,0,0,0-.04-.127l.054-.054.716.712-.054.054a.222.222,0,0,0-.127-.041.164.164,0,0,0-.1.054l-1.933,1.943a.167.167,0,0,0-.055.1.232.232,0,0,0,.04.126l-.053.053-.716-.712.053-.054a.248.248,0,0,0,.128.04A.169.169,0,0,0,126.9,268.343Z" transform="translate(-126.616 -266.118)" fill="#fff"/>
    </g>
    <g id="Group_6" data-name="Group 6" transform="translate(36.328 84.121)">
      <path id="Path_8" data-name="Path 8" d="M133.178,273.56l1.517,1.287a.166.166,0,0,0,.107.047.246.246,0,0,0,.124-.051l.058.049-.541.638-.058-.049a.244.244,0,0,0,.03-.13.163.163,0,0,0-.063-.1l-2.171-1.842.049-.058a.243.243,0,0,0,.13.029.163.163,0,0,0,.1-.063l1.772-2.088a.164.164,0,0,0,.047-.106.243.243,0,0,0-.05-.124l.049-.058.77.653-.049.058a.223.223,0,0,0-.13-.031.17.17,0,0,0-.1.064Z" transform="translate(-132.179 -270.944)" fill="#fff"/>
    </g>
    <g id="Group_7" data-name="Group 7" transform="translate(39.263 86.336)">
      <path id="Path_9" data-name="Path 9" d="M145.307,282.807l1.645,1.118a.166.166,0,0,0,.111.035.243.243,0,0,0,.117-.063l.063.043-.471.692-.063-.043a.244.244,0,0,0,.016-.133.165.165,0,0,0-.074-.09l-2.355-1.6.043-.062a.247.247,0,0,0,.132.016.165.165,0,0,0,.09-.074l1.539-2.264a.165.165,0,0,0,.035-.111.245.245,0,0,0-.063-.117l.043-.063.835.568-.043.063a.225.225,0,0,0-.132-.017.17.17,0,0,0-.091.074Z" transform="translate(-144.297 -280.089)" fill="#fff"/>
    </g>
    <g id="Group_8" data-name="Group 8" transform="translate(42.408 88.249)">
      <path id="Path_10" data-name="Path 10" d="M157.54,290.662l1.355-2.382a.162.162,0,0,0,.025-.112.244.244,0,0,0-.072-.112l.038-.066.878.5-.038.067a.222.222,0,0,0-.133-.006.162.162,0,0,0-.083.079l-1.356,2.382a.168.168,0,0,0-.026.115.23.23,0,0,0,.072.11l-.038.066-.878-.5.037-.066a.241.241,0,0,0,.134.005A.164.164,0,0,0,157.54,290.662Z" transform="translate(-157.285 -287.991)" fill="#fff"/>
    </g>
    <g id="Group_9" data-name="Group 9" transform="translate(44.076 89.086)">
      <path id="Path_11" data-name="Path 11" d="M165.817,292.7,165,294.5a.165.165,0,0,0-.016.115.242.242,0,0,0,.083.1l-.031.069-.866-.393.031-.069a.245.245,0,0,0,.133-.007.164.164,0,0,0,.077-.088l1.132-2.5a.16.16,0,0,0,.015-.113.241.241,0,0,0-.082-.105l.031-.069,1,.454-.031.069a.111.111,0,0,0-.138.057.191.191,0,0,0,.008.142l.859,2.428.793-1.749a.16.16,0,0,0,.015-.113.243.243,0,0,0-.083-.105l.031-.07.866.393-.031.07a.244.244,0,0,0-.133.007.161.161,0,0,0-.075.086l-1.132,2.5a.165.165,0,0,0-.016.116.246.246,0,0,0,.083.1l-.031.069-.928-.421.031-.069c.066.014.111,0,.133-.052a.35.35,0,0,0-.037-.2Z" transform="translate(-164.174 -291.445)" fill="#fff"/>
    </g>
    <g id="Group_10" data-name="Group 10" transform="translate(48.634 91.156)">
      <path id="Path_12" data-name="Path 12" d="M185.773,302.448l-.764-.232a.162.162,0,0,0-.115,0,.253.253,0,0,0-.092.1l-.073-.022.22-.721.073.022a.24.24,0,0,0,.023.132.165.165,0,0,0,.1.063l1.467.447-.022.073a.245.245,0,0,0-.131.025.161.161,0,0,0-.065.1l-.193.635a.165.165,0,0,0,0,.116.242.242,0,0,0,.1.094l-.017.057a3.6,3.6,0,0,1-1.862-.017,2.073,2.073,0,0,1-1.115-.729,1.541,1.541,0,0,1-.217-1.429,1.524,1.524,0,0,1,.891-1.022,2.124,2.124,0,0,1,1.466-.01,2.576,2.576,0,0,1,.485.2,3.626,3.626,0,0,1,.484.327.735.735,0,0,0,.2.128.2.2,0,0,0,.127-.018l.053.053-.59.631-.055-.054a.265.265,0,0,0,.012-.114.323.323,0,0,0-.057-.1,1.282,1.282,0,0,0-.352-.3,2,2,0,0,0-.483-.228,1.253,1.253,0,0,0-.888.027,1.064,1.064,0,0,0-.608.7,1.036,1.036,0,0,0,.111.9,1.315,1.315,0,0,0,.764.535,2.293,2.293,0,0,0,.524.095,1.735,1.735,0,0,0,.48-.03Z" transform="translate(-182.996 -299.995)" fill="#fff"/>
    </g>
    <g id="Group_11" data-name="Group 11" transform="translate(54.14 92.218)">
      <path id="Path_13" data-name="Path 13" d="M206.767,306.292l-.116.879,2.063.273a.159.159,0,0,0,.113-.019.243.243,0,0,0,.077-.109l.075.01-.11.83-.075-.01a.244.244,0,0,0-.046-.125.16.16,0,0,0-.1-.047l-2.914-.386.01-.075a.244.244,0,0,0,.125-.045.165.165,0,0,0,.047-.106l.359-2.715a.164.164,0,0,0-.018-.114.239.239,0,0,0-.109-.077l.01-.076,2.858.378a.157.157,0,0,0,.113-.019.242.242,0,0,0,.077-.109l.075.01-.11.829-.075-.01a.251.251,0,0,0-.046-.125.16.16,0,0,0-.1-.048l-2.007-.265-.1.762,1.3.172a.159.159,0,0,0,.112-.019.243.243,0,0,0,.077-.109l.075.01-.107.811-.075-.01a.252.252,0,0,0-.046-.124.159.159,0,0,0-.1-.048Z" transform="translate(-205.73 -304.379)" fill="#fff"/>
    </g>
    <g id="Group_12" data-name="Group 12" transform="translate(57.932 92.665)">
      <path id="Path_14" data-name="Path 14" d="M223.261,308.555l.89-1.885a.5.5,0,0,0,.058-.186q0-.1-.154-.135v-.076l1.108.018v.076a.232.232,0,0,0-.145.057,1.363,1.363,0,0,0-.144.258l-1.162,2.4a.662.662,0,0,0-.074.2q0,.121.147.145v.076l-1.115-.019v-.076q.15-.019.152-.142a.672.672,0,0,0-.068-.2l-1.082-2.439a1.4,1.4,0,0,0-.135-.263.229.229,0,0,0-.144-.062v-.076l1.15.019v.076c-.1.019-.158.062-.159.13a.5.5,0,0,0,.051.188Z" transform="translate(-221.391 -306.228)" fill="#fff"/>
    </g>
    <g id="Group_13" data-name="Group 13" transform="translate(61.989 92.244)">
      <path id="Path_15" data-name="Path 15" d="M239.173,306.667l.086.883,2.072-.2a.158.158,0,0,0,.105-.043.248.248,0,0,0,.05-.124l.075-.007.081.833-.075.007a.244.244,0,0,0-.073-.112.162.162,0,0,0-.112-.023l-2.926.284-.007-.076a.242.242,0,0,0,.112-.073.164.164,0,0,0,.022-.115l-.264-2.725a.162.162,0,0,0-.044-.108.238.238,0,0,0-.124-.05l-.007-.076,2.87-.278a.158.158,0,0,0,.105-.044.249.249,0,0,0,.05-.123l.076-.008.081.833-.075.007a.249.249,0,0,0-.073-.111.159.159,0,0,0-.112-.023l-2.015.2.074.765,1.307-.127a.159.159,0,0,0,.105-.044.244.244,0,0,0,.05-.124l.075-.007.079.814-.076.007a.25.25,0,0,0-.073-.111.158.158,0,0,0-.112-.024Z" transform="translate(-238.143 -304.489)" fill="#fff"/>
    </g>
    <g id="Group_14" data-name="Group 14" transform="translate(65.668 91.798)">
      <path id="Path_16" data-name="Path 16" d="M254.581,304.85l.229,1.049a.161.161,0,0,0,.057.1.231.231,0,0,0,.127.034l.016.074-.987.216-.016-.074a.244.244,0,0,0,.1-.086.161.161,0,0,0,.009-.114l-.584-2.678a.166.166,0,0,0-.056-.1.243.243,0,0,0-.129-.035l-.016-.074,1.978-.432a3.17,3.17,0,0,1,.582-.083,1.038,1.038,0,0,1,.4.065.756.756,0,0,1,.345.267,1.1,1.1,0,0,1,.179.408.884.884,0,0,1-.662,1.093l.8.739a2,2,0,0,0,.3.244.306.306,0,0,0,.2.033l.016.074-1.142.249-.016-.074c.076-.029.109-.066.1-.109a.6.6,0,0,0-.153-.178l-.844-.791Zm-.114-.522,1.065-.232a2.779,2.779,0,0,0,.331-.086.528.528,0,0,0,.166-.1.432.432,0,0,0-.149-.685.512.512,0,0,0-.19-.021,3.028,3.028,0,0,0-.338.061l-1.066.232Z" transform="translate(-253.334 -302.646)" fill="#fff"/>
    </g>
    <g id="Group_15" data-name="Group 15" transform="translate(69.081 90.412)">
      <path id="Path_17" data-name="Path 17" d="M270.069,299.166l.356,1.047a.162.162,0,0,0,.068.095.248.248,0,0,0,.132.021l.024.072-.96.327-.024-.072a.262.262,0,0,0,.095-.1.159.159,0,0,0,0-.117l-.356-1.047-1.463-1.056a1.506,1.506,0,0,0-.283-.173.346.346,0,0,0-.2-.016l-.024-.072,1.209-.411.024.072q-.142.076-.1.19a.508.508,0,0,0,.152.146l.831.632.289-1.013a.459.459,0,0,0,.031-.211.121.121,0,0,0-.07-.075.217.217,0,0,0-.127-.011l-.024-.072,1.185-.4.024.072a.347.347,0,0,0-.148.134,1.508,1.508,0,0,0-.119.309Z" transform="translate(-267.43 -296.921)" fill="#fff"/>
    </g>
    <g id="Group_16" data-name="Group 16" transform="translate(72.604 88.819)">
      <path id="Path_18" data-name="Path 18" d="M284.041,291.5l1.046,2.22a.165.165,0,0,0,.078.087.245.245,0,0,0,.133.005l.033.069-.914.431-.032-.069a.248.248,0,0,0,.081-.106.169.169,0,0,0-.017-.115L283.4,291.8l-.909.428a.161.161,0,0,0-.084.076.232.232,0,0,0-.005.134l-.069.032-.357-.757.069-.032a.259.259,0,0,0,.108.081.158.158,0,0,0,.111-.016l2.456-1.157a.164.164,0,0,0,.087-.077.235.235,0,0,0,.005-.134l.069-.032.357.757-.069.032a.234.234,0,0,0-.107-.081.168.168,0,0,0-.115.018Z" transform="translate(-281.977 -290.343)" fill="#fff"/>
    </g>
    <g id="Group_17" data-name="Group 17" transform="translate(75.873 86.912)">
      <path id="Path_19" data-name="Path 19" d="M298.751,284.471l-1.584.985.616.991a.164.164,0,0,0,.088.076.233.233,0,0,0,.131-.011l.04.064-.857.533-.04-.064a.245.245,0,0,0,.068-.115.16.16,0,0,0-.03-.11l-1.448-2.329a.161.161,0,0,0-.086-.075.243.243,0,0,0-.133.01l-.04-.065.858-.533.04.064a.222.222,0,0,0-.068.114.164.164,0,0,0,.03.111l.551.886,1.584-.985-.551-.886a.166.166,0,0,0-.086-.076.224.224,0,0,0-.133.011l-.04-.065.857-.533.04.064a.243.243,0,0,0-.068.115.16.16,0,0,0,.029.11l1.448,2.329a.165.165,0,0,0,.086.075.247.247,0,0,0,.133-.01l.04.064-.858.533-.04-.064a.235.235,0,0,0,.068-.113.163.163,0,0,0-.029-.112Z" transform="translate(-295.475 -282.47)" fill="#fff"/>
    </g>
    <text id="I" transform="matrix(0.798, -0.603, 0.603, 0.798, 79.106, 86.572)" fill="#fff" font-size="1" font-family="SegoeUI-Bold, Segoe UI" font-weight="700"><tspan x="0" y="0">I</tspan></text>
    <g id="Group_18" data-name="Group 18" transform="translate(80.728 83.091)">
      <path id="Path_20" data-name="Path 20" d="M316.8,269.361l1.324,1.456a.167.167,0,0,0,.1.06.246.246,0,0,0,.13-.034l.051.056-.7.64-.051-.056a.245.245,0,0,0,.047-.125.167.167,0,0,0-.051-.1l-1.844-2.028a.161.161,0,0,0-.1-.059.245.245,0,0,0-.129.034l-.051-.056.814-.74.051.056a.111.111,0,0,0,0,.149.19.19,0,0,0,.134.048l2.57.172-1.292-1.421a.158.158,0,0,0-.1-.058.24.24,0,0,0-.129.034l-.051-.056.7-.64.051.056a.239.239,0,0,0-.046.125.161.161,0,0,0,.049.1L320.123,269a.165.165,0,0,0,.1.06.245.245,0,0,0,.129-.034l.051.056-.754.686-.051-.056a.1.1,0,0,0,0-.143.352.352,0,0,0-.2-.045Z" transform="translate(-315.526 -266.689)" fill="#fff"/>
    </g>
    <g id="Group_19" data-name="Group 19" transform="translate(84.419 80.25)">
      <path id="Path_21" data-name="Path 21" d="M333.609,256.541l-.517.609a.16.16,0,0,0-.046.106.249.249,0,0,0,.051.123l-.049.058-.575-.488.049-.058a.246.246,0,0,0,.13.031.161.161,0,0,0,.1-.063l.993-1.169.058.049a.245.245,0,0,0-.03.13.163.163,0,0,0,.063.1l.506.43a.166.166,0,0,0,.106.047.237.237,0,0,0,.124-.051l.045.038a3.6,3.6,0,0,1-.755,1.7,2.076,2.076,0,0,1-1.112.734,1.541,1.541,0,0,1-1.4-.37,1.525,1.525,0,0,1-.584-1.224,2.123,2.123,0,0,1,.573-1.348,2.542,2.542,0,0,1,.378-.365,3.586,3.586,0,0,1,.493-.314.732.732,0,0,0,.2-.134.2.2,0,0,0,.034-.124l.07-.028.344.792-.071.03a.268.268,0,0,0-.1-.056.33.33,0,0,0-.119.011,1.277,1.277,0,0,0-.416.2,1.982,1.982,0,0,0-.4.353,1.249,1.249,0,0,0-.328.825,1.063,1.063,0,0,0,.4.838,1.036,1.036,0,0,0,.868.255,1.312,1.312,0,0,0,.794-.488,2.281,2.281,0,0,0,.3-.443,1.714,1.714,0,0,0,.163-.452Z" transform="translate(-330.766 -254.96)" fill="#fff"/>
    </g>
    <g id="Group_20" data-name="Group 20" transform="translate(44.842 42.405)">
      <rect id="Rectangle_7" data-name="Rectangle 7" width="1.506" height="36.036" fill="#fff"/>
    </g>
    <g id="Group_21" data-name="Group 21" transform="translate(54.699 37.639)">
      <rect id="Rectangle_8" data-name="Rectangle 8" width="1.506" height="45.567" fill="#fff"/>
    </g>
    <g id="Group_22" data-name="Group 22" transform="translate(64.555 37.639)">
      <rect id="Rectangle_9" data-name="Rectangle 9" width="1.506" height="45.568" fill="#fff"/>
    </g>
    <g id="Group_23" data-name="Group 23" transform="translate(74.412 42.404)">
      <rect id="Rectangle_10" data-name="Rectangle 10" width="1.506" height="36.037" transform="translate(0 0)" fill="#fff"/>
    </g>
    <g id="Group_24" data-name="Group 24" transform="translate(36.844 37.681)">
      <path id="Path_22" data-name="Path 22" d="M181.379,102.71h-2.614a20.922,20.922,0,0,0-41.845,0h-2.614a23.536,23.536,0,0,1,47.072,0Z" transform="translate(-134.307 -79.174)" fill="#040504"/>
    </g>
    <g id="Group_25" data-name="Group 25" transform="translate(36.319 36.363)">
      <path id="Path_23" data-name="Path 23" d="M156.2,121.85a24.061,24.061,0,1,1,24.061-24.061A24.088,24.088,0,0,1,156.2,121.85Zm0-46.616a22.555,22.555,0,1,0,22.555,22.554A22.58,22.58,0,0,0,156.2,75.235Z" transform="translate(-132.141 -73.729)" fill="#fff"/>
    </g>
    <g id="Group_26" data-name="Group 26" transform="translate(59.689 32.024)">
      <rect id="Rectangle_11" data-name="Rectangle 11" width="1.381" height="5.091" transform="translate(0 0)" fill="#fff"/>
    </g>
    <g id="Group_27" data-name="Group 27" transform="translate(45.634 35.454)">
      <rect id="Rectangle_12" data-name="Rectangle 12" width="1.381" height="5.091" transform="matrix(0.867, -0.498, 0.498, 0.867, 0, 0.688)" fill="#fff"/>
    </g>
    <g id="Group_28" data-name="Group 28" transform="translate(35.499 45.521)">
      <rect id="Rectangle_13" data-name="Rectangle 13" width="1.382" height="5.091" transform="matrix(0.504, -0.864, 0.864, 0.504, 0, 1.194)" fill="#fff"/>
    </g>
    <line id="Line_1" data-name="Line 1" x1="5.091" y1="0.033" transform="translate(31.982 60.24)" fill="none" stroke="#fff" stroke-width="5.705"/>
    <g id="Group_29" data-name="Group 29" transform="translate(35.325 71.302)">
      <rect id="Rectangle_14" data-name="Rectangle 14" width="5.091" height="1.381" transform="matrix(0.87, -0.493, 0.493, 0.87, 0, 2.507)" fill="#fff"/>
    </g>
    <g id="Group_30" data-name="Group 30" transform="translate(45.323 80.13)">
      <rect id="Rectangle_15" data-name="Rectangle 15" width="5.091" height="1.381" transform="translate(0 4.382) rotate(-59.396)" fill="#fff"/>
    </g>
    <g id="Group_31" data-name="Group 31" transform="translate(59.323 83.721)">
      <rect id="Rectangle_16" data-name="Rectangle 16" width="5.091" height="1.381" transform="matrix(0.013, -1, 1, 0.013, 0, 5.09)" fill="#fff"/>
    </g>
    <g id="Group_32" data-name="Group 32" transform="translate(71.126 80.445)">
      <rect id="Rectangle_17" data-name="Rectangle 17" width="1.381" height="5.091" transform="matrix(0.873, -0.487, 0.487, 0.873, 0, 0.673)" fill="#fff"/>
    </g>
    <g id="Group_33" data-name="Group 33" transform="translate(80.006 71.83)">
      <rect id="Rectangle_18" data-name="Rectangle 18" width="1.382" height="5.091" transform="translate(0 1.184) rotate(-59.008)" fill="#fff"/>
    </g>
    <line id="Line_2" data-name="Line 2" x2="5.09" y2="0.099" transform="translate(83.684 60.874)" fill="none" stroke="#fff" stroke-width="5.705"/>
    <g id="Group_34" data-name="Group 34" transform="translate(80.479 46.15)">
      <rect id="Rectangle_19" data-name="Rectangle 19" width="5.091" height="1.382" transform="translate(0 2.45) rotate(-28.772)" fill="#fff"/>
    </g>
    <g id="Group_35" data-name="Group 35" transform="translate(71.919 35.812)">
      <rect id="Rectangle_20" data-name="Rectangle 20" width="5.091" height="1.381" transform="translate(0 4.347) rotate(-58.639)" fill="#fff"/>
    </g>
    <path id="Path_24" data-name="Path 24" d="M165.963,65.618l1.812.055.6-1.568Z" transform="translate(-121.453 -30.073)" fill="#040504"/>
    <path id="Path_25" data-name="Path 25" d="M123.107,109.513l1.592-.866-.273-1.657Z" transform="translate(-88.976 -62.573)" fill="#040504"/>
    <path id="Path_26" data-name="Path 26" d="M289.357,65.838l.834,1.61,1.662-.24Z" transform="translate(-214.966 -31.386)" fill="#040504"/>
    <path id="Path_27" data-name="Path 27" d="M335.512,110.111l-.1,1.81,1.553.638Z" transform="translate(-249.868 -64.937)" fill="#040504"/>
    <path id="Path_28" data-name="Path 28" d="M333.54,231.245l-1.612.829.235,1.662Z" transform="translate(-247.228 -156.738)" fill="#040504"/>
    <path id="Path_29" data-name="Path 29" d="M289.039,275.9l-1.812-.062-.605,1.565Z" transform="translate(-212.893 -190.531)" fill="#040504"/>
    <path id="Path_30" data-name="Path 30" d="M226.135,291.835l-1.527-.977-1.319,1.038Z" transform="translate(-164.897 -201.915)" fill="#040504"/>
    <path id="Path_31" data-name="Path 31" d="M167.015,275.98l-.852-1.6-1.659.259Z" transform="translate(-120.348 -189.426)" fill="#040504"/>
    <path id="Path_32" data-name="Path 32" d="M123.545,230.17l.071-1.812-1.564-.612Z" transform="translate(-88.176 -154.086)" fill="#040504"/>
    <path id="Path_33" data-name="Path 33" d="M130.966,195.444a301.272,301.272,0,0,0-94.429,0v2.188a301.272,301.272,0,0,1,94.429,0Z" transform="translate(-23.369 -126.785)" fill="#7f2f03"/>
    <path id="Path_34" data-name="Path 34" d="M131.547,156.3a302.378,302.378,0,0,0-93.9.111V143.932a302.349,302.349,0,0,1,93.9-.11Z" transform="translate(-24.213 -87.747)" fill="#fff"/>
    <g id="Group_36" data-name="Group 36" transform="translate(13.173 52.193)">
      <path id="Path_35" data-name="Path 35" d="M36.56,155.873V142.864l.223-.035a302.186,302.186,0,0,1,93.979-.111l.223.035v13.008l-.3-.047a301.67,301.67,0,0,0-93.815.111Zm.528-12.558v11.94a302.151,302.151,0,0,1,93.369-.11v-11.94A301.628,301.628,0,0,0,37.088,143.315Z" transform="translate(-36.56 -139.098)" fill="#7f2f03"/>
    </g>
    <path id="Path_36" data-name="Path 36" d="M87.642,159.953a1.985,1.985,0,0,1,1.612,1.843,2.181,2.181,0,0,1-.647,1.885,2.672,2.672,0,0,1-.923.568,5.525,5.525,0,0,1-1.35.279l-5.744.566-.019-.2a.637.637,0,0,0,.292-.191.43.43,0,0,0,.058-.3l-.7-7.111a.428.428,0,0,0-.115-.281.632.632,0,0,0-.324-.13l-.019-.2,5.689-.561a5.728,5.728,0,0,1,1.329-.007,2.291,2.291,0,0,1,.916.332,2.028,2.028,0,0,1,.911,1.613,1.844,1.844,0,0,1-.964,1.886m-5.323-.14,3.22-.318a1.792,1.792,0,0,0,1-.316.9.9,0,0,0,.251-.8.879.879,0,0,0-.382-.725,1.826,1.826,0,0,0-1.063-.121l-3.22.317Zm.363,3.675,3.115-.307a2.453,2.453,0,0,0,1.226-.364,1.16,1.16,0,0,0-.178-1.809,2.435,2.435,0,0,0-1.274-.117l-3.115.308Z" transform="translate(-56.126 -99.78)" fill="#7f2f03"/>
    <g id="Group_37" data-name="Group 37" transform="translate(23.238 55.943)">
      <path id="Path_37" data-name="Path 37" d="M79.022,164.353l-.081-.832.256-.1a.585.585,0,0,0,.122-.06.309.309,0,0,0,0-.054l-.7-7.112a.313.313,0,0,0-.009-.053.554.554,0,0,0-.13-.035l-.272-.047-.082-.833,6.05-.6a6.015,6.015,0,0,1,1.417-.005,2.663,2.663,0,0,1,1.059.386,2.382,2.382,0,0,1,1.077,1.884,2.183,2.183,0,0,1-.6,1.812,2.293,2.293,0,0,1,1.248,1.916,2.537,2.537,0,0,1-.757,2.182,3.042,3.042,0,0,1-1.048.646,5.883,5.883,0,0,1-1.441.3Zm.247-8.51a.938.938,0,0,1,.069.281l.7,7.111a.941.941,0,0,1-.013.289l5.029-.5a5.18,5.18,0,0,0,1.259-.258,2.319,2.319,0,0,0,.8-.49,1.818,1.818,0,0,0,.536-1.586,1.62,1.62,0,0,0-1.344-1.528l-.823-.222.73-.44a1.478,1.478,0,0,0,.79-1.539,1.67,1.67,0,0,0-.745-1.343,1.944,1.944,0,0,0-.773-.279,5.42,5.42,0,0,0-1.242.009Zm1.845,6.9-.3-3.012,3.477-.344a2.736,2.736,0,0,1,1.474.155A1.52,1.52,0,0,1,86,161.966a2.747,2.747,0,0,1-1.414.44Zm.5-2.361.155,1.567,2.754-.271a2.072,2.072,0,0,0,1.038-.289.626.626,0,0,0,.209-.626.635.635,0,0,0-.331-.574,2.058,2.058,0,0,0-1.072-.079Zm-.86-1.314-.264-2.681,3.581-.353a2.127,2.127,0,0,1,1.282.17,1.223,1.223,0,0,1,.56,1,1.248,1.248,0,0,1-.366,1.1,2.09,2.09,0,0,1-1.211.41Zm.53-2.029.122,1.235L84.262,158a1.439,1.439,0,0,0,.792-.223.529.529,0,0,0,.134-.491c-.034-.346-.163-.423-.206-.448a1.465,1.465,0,0,0-.841-.072Z" transform="translate(-78.122 -154.586)" fill="#7f2f03"/>
    </g>
    <path id="Path_38" data-name="Path 38" d="M127.627,152.649a4.966,4.966,0,0,1,3.57.98,4.39,4.39,0,0,1,1.043,5.44,4.572,4.572,0,0,1-4.071,2.3,4.94,4.94,0,0,1-3.551-.98,4.169,4.169,0,0,1-1.143-1.462,4.389,4.389,0,0,1-.415-1.629,4.325,4.325,0,0,1,.508-2.356,4.613,4.613,0,0,1,4.059-2.3m.093,1.432a2.915,2.915,0,0,0-1.966.837,3.058,3.058,0,0,0,.269,4.429,3.21,3.21,0,0,0,4.037-.245,2.819,2.819,0,0,0,.666-1.087,3,3,0,0,0,.154-1.148,2.823,2.823,0,0,0-1.089-2.194,3.04,3.04,0,0,0-2.071-.593" transform="translate(-88.933 -97.164)" fill="#7f2f03"/>
    <g id="Group_38" data-name="Group 38" transform="translate(33.755 55.108)">
      <path id="Path_39" data-name="Path 39" d="M126.581,160.614a5.111,5.111,0,0,1-3.329-1.076,4.543,4.543,0,0,1-1.241-1.587,4.764,4.764,0,0,1-.45-1.763,4.7,4.7,0,0,1,.551-2.549,4.971,4.971,0,0,1,4.352-2.488h0a5.332,5.332,0,0,1,3.822,1.061,4.753,4.753,0,0,1,1.133,5.895,4.932,4.932,0,0,1-4.368,2.494Q126.814,160.614,126.581,160.614Zm-.066-8.739a4.239,4.239,0,0,0-3.763,2.107,3.99,3.99,0,0,0-.466,2.162,4.042,4.042,0,0,0,.381,1.5,3.825,3.825,0,0,0,1.044,1.336,4.615,4.615,0,0,0,3.3.9,4.2,4.2,0,0,0,3.774-2.116,3.859,3.859,0,0,0,.475-2.1,3.793,3.793,0,0,0-1.427-2.88A4.637,4.637,0,0,0,126.515,151.875Zm.2,7.3a3.232,3.232,0,0,1-2.053-.678,3.421,3.421,0,0,1-.3-4.971,3.28,3.28,0,0,1,2.2-.943h0a3.4,3.4,0,0,1,2.31.667,3.183,3.183,0,0,1,1.23,2.46,3.376,3.376,0,0,1-.172,1.286,3.191,3.191,0,0,1-.752,1.226,3.278,3.278,0,0,1-2.208.945C126.887,159.172,126.8,159.175,126.716,159.175Zm-.111-5.868a2.543,2.543,0,0,0-1.728.731,2.7,2.7,0,0,0,.235,3.887,2.848,2.848,0,0,0,3.554-.214,2.476,2.476,0,0,0,.581-.949,2.653,2.653,0,0,0,.135-1.009,2.457,2.457,0,0,0-.946-1.927A2.666,2.666,0,0,0,126.6,153.307Z" transform="translate(-121.552 -151.135)" fill="#7f2f03"/>
    </g>
    <path id="Path_40" data-name="Path 40" d="M170.306,151.191l.2,6.4a.427.427,0,0,0,.1.287.635.635,0,0,0,.314.152l.006.2-2.634.081-.006-.2a.626.626,0,0,0,.3-.17.427.427,0,0,0,.077-.293l-.2-6.4-2.622.081a.422.422,0,0,0-.282.093.619.619,0,0,0-.151.316l-.2.006-.067-2.183.2-.006a.679.679,0,0,0,.173.305.409.409,0,0,0,.284.077l7.08-.217a.435.435,0,0,0,.288-.094.629.629,0,0,0,.151-.315l.2-.006.067,2.183-.2.006a.625.625,0,0,0-.17-.306.436.436,0,0,0-.294-.076Z" transform="translate(-120.833 -94.64)" fill="#7f2f03"/>
    <g id="Group_39" data-name="Group 39" transform="translate(43.937 54.29)">
      <path id="Path_41" data-name="Path 41" d="M166.761,157.511l-.026-.838.265-.082a.562.562,0,0,0,.123-.051.3.3,0,0,0,0-.054l-.185-6.037-2.259.069a.3.3,0,0,0-.048,0,.562.562,0,0,0-.042.126l-.065.27-.839.027-.089-2.91.831-.024.086.255a.659.659,0,0,0,.058.133.3.3,0,0,0,.044,0l7.081-.217a.29.29,0,0,0,.055-.006.589.589,0,0,0,.043-.126l.065-.269.838-.026.089,2.908-.837.027-.082-.265a.6.6,0,0,0-.05-.124.362.362,0,0,0-.056,0l-2.252.069.185,6.037a.306.306,0,0,0,.006.054.6.6,0,0,0,.128.044l.268.066.025.836Zm.883-7.81.207,6.763a.952.952,0,0,1-.032.288l1.2-.037a.946.946,0,0,1-.05-.285l-.207-6.763,2.978-.092a.988.988,0,0,1,.288.032l-.023-.746a.949.949,0,0,1-.285.05l-7.08.217a.907.907,0,0,1-.281-.032l.023.745a.923.923,0,0,1,.279-.048Z" transform="translate(-163.598 -147.758)" fill="#7f2f03"/>
    </g>
    <path id="Path_42" data-name="Path 42" d="M206.224,150.882l.038,6.4a.426.426,0,0,0,.088.29.632.632,0,0,0,.31.16v.2l-2.635.016v-.2a.628.628,0,0,0,.309-.163.426.426,0,0,0,.085-.291l-.038-6.4-2.623.016a.424.424,0,0,0-.284.086.626.626,0,0,0-.159.312h-.2l-.013-2.184h.2a.675.675,0,0,0,.166.31.411.411,0,0,0,.282.083l7.083-.042a.436.436,0,0,0,.29-.087.627.627,0,0,0,.159-.312h.2l.013,2.184h-.2a.624.624,0,0,0-.163-.31.437.437,0,0,0-.291-.083Z" transform="translate(-148.084 -94.466)" fill="#7f2f03"/>
    <g id="Group_40" data-name="Group 40" transform="translate(52.654 54.243)">
      <path id="Path_43" data-name="Path 43" d="M202.522,157.17l-.006-.838.266-.075a.579.579,0,0,0,.125-.048.292.292,0,0,0,0-.054l-.036-6.04-2.26.014a.291.291,0,0,0-.049,0,.59.59,0,0,0-.046.125l-.071.268-.839.005-.017-2.91.832-.006.079.259a.674.674,0,0,0,.054.134l.044,0,7.084-.042a.3.3,0,0,0,.055,0,.583.583,0,0,0,.045-.124l.071-.268.839-.006.017,2.911-.839.005-.075-.267a.59.59,0,0,0-.046-.124.427.427,0,0,0-.056,0l-2.253.014.036,6.04a.3.3,0,0,0,0,.054.573.573,0,0,0,.127.047l.266.073,0,.836Zm1.075-7.786.04,6.766a.937.937,0,0,1-.039.286l1.2-.007a.947.947,0,0,1-.042-.286l-.041-6.766,2.98-.018h.005a.949.949,0,0,1,.281.039l0-.747a.95.95,0,0,1-.286.043l-7.084.042a.876.876,0,0,1-.28-.039l0,.746a.924.924,0,0,1,.281-.041Z" transform="translate(-199.594 -147.565)" fill="#7f2f03"/>
    </g>
    <path id="Path_44" data-name="Path 44" d="M241.425,157.853l5.19.094a.431.431,0,0,0,.292-.081.641.641,0,0,0,.166-.307l.2,0-.039,2.184-.2,0a.625.625,0,0,0-.155-.311.428.428,0,0,0-.289-.092l-7.429-.135,0-.2a.635.635,0,0,0,.312-.155.428.428,0,0,0,.092-.289l.13-7.144a.43.43,0,0,0-.081-.293.632.632,0,0,0-.307-.167l0-.2,2.635.048,0,.2a.584.584,0,0,0-.312.152.442.442,0,0,0-.092.293Z" transform="translate(-176.926 -95.743)" fill="#7f2f03"/>
    <g id="Group_41" data-name="Group 41" transform="translate(61.865 54.647)">
      <path id="Path_45" data-name="Path 45" d="M246.431,158.959l-.838-.018-.069-.267a.559.559,0,0,0-.045-.125.293.293,0,0,0-.054-.005l-7.793-.142.016-.837.267-.069a.567.567,0,0,0,.127-.046.293.293,0,0,0,.005-.053l.13-7.145a.281.281,0,0,0,0-.054.559.559,0,0,0-.125-.05l-.265-.079.016-.837,3.36.062-.014.845-.277.064a.489.489,0,0,0-.12.04c0,.005,0,.025,0,.057l-.109,6.039,4.826.087a.348.348,0,0,0,.054,0,.59.59,0,0,0,.05-.125l.079-.264.837.014Zm-7.7-1.264,6.71.122a.948.948,0,0,1,.286.046l.014-.748a1.011,1.011,0,0,1-.287.036l-5.553-.1.123-6.765a.953.953,0,0,1,.046-.286l-1.2-.022a.94.94,0,0,1,.036.287l-.13,7.145A.946.946,0,0,1,238.728,157.7Z" transform="translate(-237.633 -149.232)" fill="#7f2f03"/>
    </g>
    <path id="Path_46" data-name="Path 46" d="M278.357,156.213l-.1,2.312,5.427.239a.418.418,0,0,0,.288-.073.63.63,0,0,0,.174-.3l.2.009-.1,2.182-.2-.008a.632.632,0,0,0-.147-.316.415.415,0,0,0-.28-.1l-7.664-.34.009-.2a.628.628,0,0,0,.316-.146.43.43,0,0,0,.1-.286l.316-7.139a.429.429,0,0,0-.074-.294.636.636,0,0,0-.3-.175l.009-.2,7.515.333a.415.415,0,0,0,.288-.075.647.647,0,0,0,.175-.3l.2.009-.1,2.182-.2-.009a.644.644,0,0,0-.147-.315.416.416,0,0,0-.28-.1l-5.278-.233-.089,2,3.424.152a.417.417,0,0,0,.288-.074.634.634,0,0,0,.174-.3l.2.009-.094,2.132-.2-.009a.653.653,0,0,0-.147-.313.413.413,0,0,0-.28-.1Z" transform="translate(-204.809 -96.18)" fill="#7f2f03"/>
    <g id="Group_42" data-name="Group 42" transform="translate(70.766 54.782)">
      <path id="Path_47" data-name="Path 47" d="M283.4,159.784l-.837-.035-.062-.27a.54.54,0,0,0-.042-.129.252.252,0,0,0-.046-.005l-8.029-.356.038-.838.27-.061a.561.561,0,0,0,.127-.041.374.374,0,0,0,.007-.054l.316-7.138a.321.321,0,0,0,0-.054.61.61,0,0,0-.125-.054l-.261-.086.037-.835,7.878.349a.268.268,0,0,0,.051,0c0-.007.023-.045.05-.126l.087-.261.835.038-.128,2.908-.835-.038-.063-.267a.529.529,0,0,0-.046-.133l-.045,0-4.915-.217-.057,1.276,3.061.136a.265.265,0,0,0,.048,0,.581.581,0,0,0,.053-.124l.085-.263.837.038L281.565,156l-.834-.04-.064-.265a.519.519,0,0,0-.047-.134l-.044,0-3.06-.136-.07,1.586,5.064.224a.29.29,0,0,0,.048,0,.581.581,0,0,0,.053-.124l.085-.262.837.036Zm-7.9-1.473,6.947.309a.9.9,0,0,1,.278.052l.033-.746a.94.94,0,0,1-.282.028l-5.79-.256.135-3.038,3.787.168a.91.91,0,0,1,.278.054l.031-.7a.883.883,0,0,1-.282.028l-3.786-.168.121-2.728,5.641.25a.919.919,0,0,1,.278.053l.033-.747a.9.9,0,0,1-.281.029l-6.8-.3a.952.952,0,0,1,.028.288l-.316,7.139A.939.939,0,0,1,275.5,158.311Z" transform="translate(-274.389 -149.788)" fill="#7f2f03"/>
    </g>
    <path id="Path_48" data-name="Path 48" d="M317.88,158.537l-.207,2.8a.421.421,0,0,0,.068.293.6.6,0,0,0,.294.181l-.015.2-2.628-.2.015-.2a.638.638,0,0,0,.32-.137.421.421,0,0,0,.107-.278l.529-7.132a.43.43,0,0,0-.065-.3.627.627,0,0,0-.3-.183l.014-.2,5.269.391A8.272,8.272,0,0,1,322.8,154a2.7,2.7,0,0,1,.955.462,1.956,1.956,0,0,1,.663.924,2.844,2.844,0,0,1,.145,1.151q-.153,2.061-2.468,2.243l1.462,2.447a5.206,5.206,0,0,0,.574.833.8.8,0,0,0,.476.231l-.015.2-3.043-.225.015-.2c.212-.017.322-.084.331-.2a1.578,1.578,0,0,0-.25-.558l-1.522-2.607Zm.1-1.388,2.838.211a7.205,7.205,0,0,0,.891.029,1.4,1.4,0,0,0,.487-.119,1.126,1.126,0,0,0,.135-1.826,1.321,1.321,0,0,0-.46-.193,7.637,7.637,0,0,0-.889-.1l-2.838-.211Z" transform="translate(-234.696 -97.734)" fill="#7f2f03"/>
    <g id="Group_43" data-name="Group 43" transform="translate(80.307 55.264)">
      <path id="Path_49" data-name="Path 49" d="M323.715,161.662l-3.768-.279.065-.87.226-.019c-.029-.057-.069-.129-.121-.22l-1.424-2.44-1.7-.126-.18,2.433a.211.211,0,0,0,0,.054,1.012,1.012,0,0,0,.114.048l.268.09-.062.841-3.352-.249.061-.834.271-.054a.589.589,0,0,0,.13-.038.275.275,0,0,0,.007-.047l.529-7.132a.275.275,0,0,0,0-.054.569.569,0,0,0-.121-.056l-.26-.093.062-.835,5.631.417a8.555,8.555,0,0,1,1.589.236,3.08,3.08,0,0,1,1.081.525,2.326,2.326,0,0,1,.783,1.091,3.215,3.215,0,0,1,.164,1.3,2.559,2.559,0,0,1-2.236,2.5l1.181,1.975a4.654,4.654,0,0,0,.52.764.441.441,0,0,0,.268.127l.337.047Zm-2.678-.927,1.41.1c-.114-.158-.25-.369-.414-.641l-1.763-2.951.584-.046c1.367-.107,2.045-.713,2.134-1.908a2.492,2.492,0,0,0-.125-1.006,1.589,1.589,0,0,0-.541-.755,2.357,2.357,0,0,0-.829-.4,7.971,7.971,0,0,0-1.45-.212l-4.552-.338a.932.932,0,0,1,.02.289L314.98,160a.922.922,0,0,1-.061.276l1.195.089a.925.925,0,0,1-.02-.282l.234-3.158,2.8.208,1.618,2.772c.263.455.308.626.3.767A.49.49,0,0,1,321.037,160.735Zm-.716-4.2c-.186,0-.432-.012-.744-.035l-3.2-.238.218-2.933,3.2.238a7.824,7.824,0,0,1,.938.107,1.691,1.691,0,0,1,.584.244,1.485,1.485,0,0,1-.187,2.461,1.765,1.765,0,0,1-.61.15C320.463,156.537,320.4,156.539,320.321,156.539Zm-3.167-.943,2.476.184a6.957,6.957,0,0,0,.839.029,1.041,1.041,0,0,0,.362-.088c.136-.061.3-.181.324-.574s-.11-.535-.234-.614a.965.965,0,0,0-.34-.143,7,7,0,0,0-.841-.093l-2.476-.184Z" transform="translate(-313.786 -151.78)" fill="#7f2f03"/>
    </g>
    <path id="Path_50" data-name="Path 50" d="M365.383,158.895l-1.214,1.87-.162-.117c.008-.04.014-.073.017-.1.015-.139-.088-.3-.309-.487a4.41,4.41,0,0,0-2.49-1.038,3.785,3.785,0,0,0-1.167.037,1.386,1.386,0,0,0-.627.306.784.784,0,0,0-.282.511q-.05.473.5.706a9.057,9.057,0,0,0,1.247.32l.955.2a7.964,7.964,0,0,1,1.366.4,3.281,3.281,0,0,1,.9.55,2.117,2.117,0,0,1,.577.863,2.358,2.358,0,0,1,.131,1.077,2.406,2.406,0,0,1-.741,1.513,3.09,3.09,0,0,1-1.7.757,6.453,6.453,0,0,1-1.765.041,7.429,7.429,0,0,1-3.206-1.151,1.754,1.754,0,0,0-.395-.2.523.523,0,0,0-.267.108l-.169-.112,1.131-1.964.169.106-.008.08a.681.681,0,0,0,.21.538,3.384,3.384,0,0,0,1.171.748,5.414,5.414,0,0,0,1.56.428,3.232,3.232,0,0,0,1.426-.128,1.357,1.357,0,0,0,.554-.353.881.881,0,0,0,.247-.511.619.619,0,0,0-.386-.644,6.053,6.053,0,0,0-1.243-.362l-.937-.2a13.1,13.1,0,0,1-1.327-.332,3.475,3.475,0,0,1-.757-.371,2.052,2.052,0,0,1-.791-.925,2.249,2.249,0,0,1-.167-1.176,2.335,2.335,0,0,1,.92-1.682,4.045,4.045,0,0,1,2.977-.61,6.564,6.564,0,0,1,1.483.324,11.463,11.463,0,0,1,1.67.788,1.891,1.891,0,0,0,.421.189.511.511,0,0,0,.317-.11Z" transform="translate(-265.909 -100.89)" fill="#7f2f03"/>
    <g id="Group_44" data-name="Group 44" transform="translate(90.185 56.299)">
      <path id="Path_51" data-name="Path 51" d="M359.85,165.578a7.415,7.415,0,0,1-.792-.043,7.817,7.817,0,0,1-3.361-1.205c-.107-.064-.177-.1-.221-.126l-.054.032-.2.124-.648-.429,1.489-2.586.682.426-.034.309c0,.025-.012.11.117.251a3.062,3.062,0,0,0,1.046.659,5.079,5.079,0,0,0,1.455.4,2.9,2.9,0,0,0,1.266-.109.992.992,0,0,0,.409-.258.525.525,0,0,0,.152-.3c.009-.087,0-.181-.194-.284a5.519,5.519,0,0,0-1.151-.329l-.935-.2a13.015,13.015,0,0,1-1.369-.343,3.837,3.837,0,0,1-.836-.409,2.413,2.413,0,0,1-.926-1.084,2.616,2.616,0,0,1-.2-1.361,2.7,2.7,0,0,1,1.06-1.932,4.407,4.407,0,0,1,3.237-.683,6.968,6.968,0,0,1,1.565.343,11.677,11.677,0,0,1,1.725.812c.16.085.244.123.284.139a.838.838,0,0,0,.078-.046l.2-.135.656.45-1.615,2.488-.662-.479.047-.23c0-.016.006-.03.008-.042a.713.713,0,0,0-.177-.191,4.079,4.079,0,0,0-2.3-.955,3.467,3.467,0,0,0-1.056.031,1.011,1.011,0,0,0-.46.222.415.415,0,0,0-.161.278c-.008.076-.022.2.284.333a8.455,8.455,0,0,0,1.181.3l.956.2a8.367,8.367,0,0,1,1.432.421,3.667,3.667,0,0,1,.995.611,2.492,2.492,0,0,1,.678,1.011,2.722,2.722,0,0,1,.151,1.241,2.77,2.77,0,0,1-.849,1.735,3.453,3.453,0,0,1-1.9.855A6.436,6.436,0,0,1,359.85,165.578Zm-4.183-2.087a2.932,2.932,0,0,1,.411.219,7.113,7.113,0,0,0,3.058,1.1,6.106,6.106,0,0,0,1.666-.038,2.761,2.761,0,0,0,1.511-.658,2.038,2.038,0,0,0,.634-1.292,1.982,1.982,0,0,0-.111-.913,1.746,1.746,0,0,0-.478-.718,2.938,2.938,0,0,0-.8-.486,7.693,7.693,0,0,0-1.3-.38l-.954-.2a9.114,9.114,0,0,1-1.31-.339,1.017,1.017,0,0,1-.727-1.081,1.139,1.139,0,0,1,.4-.744,1.754,1.754,0,0,1,.788-.388,4.193,4.193,0,0,1,1.286-.044,4.786,4.786,0,0,1,2.689,1.125,1.609,1.609,0,0,1,.252.254l.531-.818a3.192,3.192,0,0,1-.423-.2,11.211,11.211,0,0,0-1.621-.765,6.247,6.247,0,0,0-1.4-.306,3.727,3.727,0,0,0-2.717.537,1.971,1.971,0,0,0-.78,1.433,1.9,1.9,0,0,0,.137.989,1.683,1.683,0,0,0,.654.766,3.127,3.127,0,0,0,.68.334,12.721,12.721,0,0,0,1.285.32l.937.2a6.148,6.148,0,0,1,1.334.395.98.98,0,0,1,.579,1,1.239,1.239,0,0,1-.342.72,1.726,1.726,0,0,1-.7.449,3.6,3.6,0,0,1-1.585.146,5.8,5.8,0,0,1-1.664-.455,3.69,3.69,0,0,1-1.3-.837,1.32,1.32,0,0,1-.138-.177Zm-.261.678Z" transform="translate(-354.576 -156.055)" fill="#7f2f03"/>
    </g>
    <path id="Path_52" data-name="Path 52" d="M86.369,158.76a1.984,1.984,0,0,1,1.611,1.843,2.183,2.183,0,0,1-.647,1.885,2.675,2.675,0,0,1-.923.567,5.515,5.515,0,0,1-1.35.279l-5.744.566-.019-.2a.63.63,0,0,0,.292-.191.428.428,0,0,0,.058-.3l-.7-7.111a.43.43,0,0,0-.115-.281.633.633,0,0,0-.324-.13l-.019-.2,5.688-.561a5.711,5.711,0,0,1,1.329-.007,2.283,2.283,0,0,1,.916.332,2.027,2.027,0,0,1,.911,1.613,1.844,1.844,0,0,1-.964,1.885m-5.323-.14,3.22-.318a1.793,1.793,0,0,0,1-.316.9.9,0,0,0,.251-.8.877.877,0,0,0-.382-.724,1.825,1.825,0,0,0-1.063-.122l-3.22.317Zm.363,3.676,3.115-.307a2.46,2.46,0,0,0,1.226-.363,1.161,1.161,0,0,0-.178-1.81A2.428,2.428,0,0,0,84.3,159.7l-3.115.307Z" transform="translate(-55.161 -98.876)" fill="#fff"/>
    <path id="Path_53" data-name="Path 53" d="M86.369,158.76a1.984,1.984,0,0,1,1.611,1.843,2.183,2.183,0,0,1-.647,1.885,2.675,2.675,0,0,1-.923.567,5.515,5.515,0,0,1-1.35.279l-5.744.566-.019-.2a.63.63,0,0,0,.292-.191.428.428,0,0,0,.058-.3l-.7-7.111a.43.43,0,0,0-.115-.281.633.633,0,0,0-.324-.13l-.019-.2,5.688-.561a5.711,5.711,0,0,1,1.329-.007,2.283,2.283,0,0,1,.916.332,2.027,2.027,0,0,1,.911,1.613A1.844,1.844,0,0,1,86.369,158.76Zm-5.323-.14,3.22-.318a1.793,1.793,0,0,0,1-.316.9.9,0,0,0,.251-.8.877.877,0,0,0-.382-.724,1.825,1.825,0,0,0-1.063-.122l-3.22.317Zm.363,3.676,3.115-.307a2.46,2.46,0,0,0,1.226-.363,1.161,1.161,0,0,0-.178-1.81A2.428,2.428,0,0,0,84.3,159.7l-3.115.307Z" transform="translate(-55.161 -98.876)" fill="none" stroke="#fff" stroke-width="3"/>
    <path id="Path_54" data-name="Path 54" d="M126.354,151.457a4.965,4.965,0,0,1,3.57.98,4.389,4.389,0,0,1,1.043,5.44,4.571,4.571,0,0,1-4.071,2.3,4.938,4.938,0,0,1-3.551-.98,4.162,4.162,0,0,1-1.143-1.461,4.387,4.387,0,0,1-.415-1.63,4.328,4.328,0,0,1,.509-2.355,4.612,4.612,0,0,1,4.059-2.3m.093,1.432a2.917,2.917,0,0,0-1.966.838,3.057,3.057,0,0,0,.269,4.429,3.209,3.209,0,0,0,4.037-.245,2.815,2.815,0,0,0,.666-1.087,3,3,0,0,0,.154-1.148,2.823,2.823,0,0,0-1.089-2.194,3.039,3.039,0,0,0-2.071-.593" transform="translate(-87.968 -96.26)" fill="#fff"/>
    <path id="Path_55" data-name="Path 55" d="M126.354,151.457a4.965,4.965,0,0,1,3.57.98,4.389,4.389,0,0,1,1.043,5.44,4.571,4.571,0,0,1-4.071,2.3,4.938,4.938,0,0,1-3.551-.98,4.162,4.162,0,0,1-1.143-1.461,4.387,4.387,0,0,1-.415-1.63,4.328,4.328,0,0,1,.509-2.355A4.612,4.612,0,0,1,126.354,151.457Zm.093,1.432a2.917,2.917,0,0,0-1.966.838,3.057,3.057,0,0,0,.269,4.429,3.209,3.209,0,0,0,4.037-.245,2.815,2.815,0,0,0,.666-1.087,3,3,0,0,0,.154-1.148,2.823,2.823,0,0,0-1.089-2.194A3.039,3.039,0,0,0,126.447,152.889Z" transform="translate(-87.968 -96.26)" fill="none" stroke="#fff" stroke-width="3"/>
    <path id="Path_56" data-name="Path 56" d="M169.032,150l.2,6.4a.43.43,0,0,0,.1.288.64.64,0,0,0,.314.151l.006.2-2.634.081-.006-.2a.631.631,0,0,0,.3-.17.43.43,0,0,0,.078-.293l-.2-6.4-2.622.08a.422.422,0,0,0-.282.093.622.622,0,0,0-.151.316l-.2.006-.067-2.183.2-.006a.679.679,0,0,0,.173.306.41.41,0,0,0,.284.077l7.08-.217a.436.436,0,0,0,.288-.094.627.627,0,0,0,.151-.316l.2-.006.067,2.183-.2.006a.626.626,0,0,0-.17-.306.437.437,0,0,0-.294-.076Z" transform="translate(-119.867 -93.736)" fill="#fff"/>
    <path id="Path_57" data-name="Path 57" d="M169.032,150l.2,6.4a.43.43,0,0,0,.1.288.64.64,0,0,0,.314.151l.006.2-2.634.081-.006-.2a.631.631,0,0,0,.3-.17.43.43,0,0,0,.078-.293l-.2-6.4-2.622.08a.422.422,0,0,0-.282.093.622.622,0,0,0-.151.316l-.2.006-.067-2.183.2-.006a.679.679,0,0,0,.173.306.41.41,0,0,0,.284.077l7.08-.217a.436.436,0,0,0,.288-.094.627.627,0,0,0,.151-.316l.2-.006.067,2.183-.2.006a.626.626,0,0,0-.17-.306.437.437,0,0,0-.294-.076Z" transform="translate(-119.867 -93.736)" fill="none" stroke="#fff" stroke-width="3"/>
    <path id="Path_58" data-name="Path 58" d="M204.95,149.69l.038,6.4a.429.429,0,0,0,.088.29.634.634,0,0,0,.31.159v.2l-2.635.016v-.2a.639.639,0,0,0,.309-.163.431.431,0,0,0,.085-.291l-.038-6.4-2.623.016a.423.423,0,0,0-.284.086.623.623,0,0,0-.159.312h-.2l-.013-2.184h.2a.676.676,0,0,0,.166.31.409.409,0,0,0,.282.083l7.083-.042a.434.434,0,0,0,.29-.087.628.628,0,0,0,.159-.312h.2l.013,2.184h-.2a.624.624,0,0,0-.163-.31.438.438,0,0,0-.292-.084Z" transform="translate(-147.118 -93.563)" fill="#fff"/>
    <path id="Path_59" data-name="Path 59" d="M204.95,149.69l.038,6.4a.429.429,0,0,0,.088.29.634.634,0,0,0,.31.159v.2l-2.635.016v-.2a.639.639,0,0,0,.309-.163.431.431,0,0,0,.085-.291l-.038-6.4-2.623.016a.423.423,0,0,0-.284.086.623.623,0,0,0-.159.312h-.2l-.013-2.184h.2a.676.676,0,0,0,.166.31.409.409,0,0,0,.282.083l7.083-.042a.434.434,0,0,0,.29-.087.628.628,0,0,0,.159-.312h.2l.013,2.184h-.2a.624.624,0,0,0-.163-.31.438.438,0,0,0-.292-.084Z" transform="translate(-147.118 -93.563)" fill="none" stroke="#fff" stroke-width="3"/>
    <path id="Path_60" data-name="Path 60" d="M240.152,156.66l5.19.094a.432.432,0,0,0,.293-.081.641.641,0,0,0,.166-.306l.2,0-.039,2.184-.2,0a.629.629,0,0,0-.155-.312.431.431,0,0,0-.289-.092l-7.429-.135,0-.2a.629.629,0,0,0,.311-.155.427.427,0,0,0,.092-.289l.13-7.144a.43.43,0,0,0-.081-.292.629.629,0,0,0-.307-.167l0-.2,2.635.048,0,.2a.583.583,0,0,0-.312.152.443.443,0,0,0-.092.292Z" transform="translate(-175.961 -94.84)" fill="#fff"/>
    <path id="Path_61" data-name="Path 61" d="M240.152,156.66l5.19.094a.432.432,0,0,0,.293-.081.641.641,0,0,0,.166-.306l.2,0-.039,2.184-.2,0a.629.629,0,0,0-.155-.312.431.431,0,0,0-.289-.092l-7.429-.135,0-.2a.629.629,0,0,0,.311-.155.427.427,0,0,0,.092-.289l.13-7.144a.43.43,0,0,0-.081-.292.629.629,0,0,0-.307-.167l0-.2,2.635.048,0,.2a.583.583,0,0,0-.312.152.443.443,0,0,0-.092.292Z" transform="translate(-175.961 -94.84)" fill="none" stroke="#fff" stroke-width="3"/>
    <path id="Path_62" data-name="Path 62" d="M277.083,155.02l-.1,2.312,5.426.24a.42.42,0,0,0,.288-.074.634.634,0,0,0,.175-.3l.2.009-.1,2.182-.2-.009a.634.634,0,0,0-.147-.316.415.415,0,0,0-.28-.1l-7.664-.34.009-.2a.629.629,0,0,0,.316-.147.431.431,0,0,0,.1-.287l.316-7.138a.429.429,0,0,0-.073-.294.635.635,0,0,0-.3-.175l.009-.2,7.515.333a.414.414,0,0,0,.288-.076.643.643,0,0,0,.174-.3l.2.009-.1,2.182-.2-.009a.639.639,0,0,0-.147-.315.411.411,0,0,0-.28-.1l-5.278-.234-.089,2,3.424.152a.42.42,0,0,0,.288-.074.63.63,0,0,0,.174-.3l.2.009-.094,2.132-.2-.009a.653.653,0,0,0-.147-.313.414.414,0,0,0-.28-.1Z" transform="translate(-203.844 -95.276)" fill="#fff"/>
    <path id="Path_63" data-name="Path 63" d="M277.083,155.02l-.1,2.312,5.426.24a.42.42,0,0,0,.288-.074.634.634,0,0,0,.175-.3l.2.009-.1,2.182-.2-.009a.634.634,0,0,0-.147-.316.415.415,0,0,0-.28-.1l-7.664-.34.009-.2a.629.629,0,0,0,.316-.147.431.431,0,0,0,.1-.287l.316-7.138a.429.429,0,0,0-.073-.294.635.635,0,0,0-.3-.175l.009-.2,7.515.333a.414.414,0,0,0,.288-.076.643.643,0,0,0,.174-.3l.2.009-.1,2.182-.2-.009a.639.639,0,0,0-.147-.315.411.411,0,0,0-.28-.1l-5.278-.234-.089,2,3.424.152a.42.42,0,0,0,.288-.074.63.63,0,0,0,.174-.3l.2.009-.094,2.132-.2-.009a.653.653,0,0,0-.147-.313.414.414,0,0,0-.28-.1Z" transform="translate(-203.844 -95.276)" fill="none" stroke="#fff" stroke-width="3"/>
    <path id="Path_64" data-name="Path 64" d="M316.607,157.344l-.207,2.8a.422.422,0,0,0,.068.293.6.6,0,0,0,.294.18l-.014.2-2.628-.2.014-.2a.635.635,0,0,0,.321-.137.42.42,0,0,0,.107-.278l.529-7.132a.432.432,0,0,0-.065-.3.63.63,0,0,0-.3-.183l.015-.2,5.269.391a8.279,8.279,0,0,1,1.519.224,2.717,2.717,0,0,1,.955.462,1.96,1.96,0,0,1,.663.924,2.843,2.843,0,0,1,.144,1.152q-.152,2.061-2.468,2.243l1.463,2.447a5.177,5.177,0,0,0,.574.833.8.8,0,0,0,.476.231l-.014.2-3.043-.225.015-.2c.212-.018.322-.084.331-.2a1.58,1.58,0,0,0-.249-.558l-1.522-2.607Zm.1-1.388,2.838.21a7.206,7.206,0,0,0,.891.029,1.4,1.4,0,0,0,.487-.119,1.126,1.126,0,0,0,.135-1.826,1.328,1.328,0,0,0-.46-.192,7.632,7.632,0,0,0-.889-.1l-2.838-.211Z" transform="translate(-233.732 -96.829)" fill="#fff"/>
    <path id="Path_65" data-name="Path 65" d="M316.607,157.344l-.207,2.8a.422.422,0,0,0,.068.293.6.6,0,0,0,.294.18l-.014.2-2.628-.2.014-.2a.635.635,0,0,0,.321-.137.42.42,0,0,0,.107-.278l.529-7.132a.432.432,0,0,0-.065-.3.63.63,0,0,0-.3-.183l.015-.2,5.269.391a8.279,8.279,0,0,1,1.519.224,2.717,2.717,0,0,1,.955.462,1.96,1.96,0,0,1,.663.924,2.843,2.843,0,0,1,.144,1.152q-.152,2.061-2.468,2.243l1.463,2.447a5.177,5.177,0,0,0,.574.833.8.8,0,0,0,.476.231l-.014.2-3.043-.225.015-.2c.212-.018.322-.084.331-.2a1.58,1.58,0,0,0-.249-.558l-1.522-2.607Zm.1-1.388,2.838.21a7.206,7.206,0,0,0,.891.029,1.4,1.4,0,0,0,.487-.119,1.126,1.126,0,0,0,.135-1.826,1.328,1.328,0,0,0-.46-.192,7.632,7.632,0,0,0-.889-.1l-2.838-.211Z" transform="translate(-233.732 -96.829)" fill="none" stroke="#fff" stroke-width="3"/>
    <path id="Path_66" data-name="Path 66" d="M364.109,157.7l-1.214,1.87-.162-.117c.008-.041.014-.074.017-.1q.022-.209-.309-.487a4.411,4.411,0,0,0-2.49-1.038,3.792,3.792,0,0,0-1.167.037,1.384,1.384,0,0,0-.627.306.783.783,0,0,0-.282.511q-.05.473.5.706a9.056,9.056,0,0,0,1.248.32l.955.2a7.961,7.961,0,0,1,1.366.4,3.286,3.286,0,0,1,.9.549,2.121,2.121,0,0,1,.577.864,2.359,2.359,0,0,1,.131,1.077,2.4,2.4,0,0,1-.74,1.513,3.09,3.09,0,0,1-1.7.757,6.463,6.463,0,0,1-1.765.041,7.422,7.422,0,0,1-3.206-1.151,1.777,1.777,0,0,0-.395-.2.527.527,0,0,0-.267.108l-.169-.111,1.131-1.964.169.106c0,.037-.007.064-.008.08a.682.682,0,0,0,.21.539,3.375,3.375,0,0,0,1.171.747,5.41,5.41,0,0,0,1.56.428,3.228,3.228,0,0,0,1.426-.127,1.36,1.36,0,0,0,.554-.354.878.878,0,0,0,.247-.511.618.618,0,0,0-.385-.643,5.99,5.99,0,0,0-1.243-.363l-.937-.2a13.019,13.019,0,0,1-1.327-.332,3.5,3.5,0,0,1-.757-.37,2.056,2.056,0,0,1-.791-.925,2.248,2.248,0,0,1-.167-1.176,2.337,2.337,0,0,1,.92-1.683,4.047,4.047,0,0,1,2.977-.61,6.56,6.56,0,0,1,1.483.325,11.428,11.428,0,0,1,1.67.787,1.881,1.881,0,0,0,.422.189.51.51,0,0,0,.316-.11Z" transform="translate(-264.944 -99.986)" fill="#fff"/>
    <path id="Path_67" data-name="Path 67" d="M364.109,157.7l-1.214,1.87-.162-.117c.008-.041.014-.074.017-.1q.022-.209-.309-.487a4.411,4.411,0,0,0-2.49-1.038,3.792,3.792,0,0,0-1.167.037,1.384,1.384,0,0,0-.627.306.783.783,0,0,0-.282.511q-.05.473.5.706a9.056,9.056,0,0,0,1.248.32l.955.2a7.961,7.961,0,0,1,1.366.4,3.286,3.286,0,0,1,.9.549,2.121,2.121,0,0,1,.577.864,2.359,2.359,0,0,1,.131,1.077,2.4,2.4,0,0,1-.74,1.513,3.09,3.09,0,0,1-1.7.757,6.463,6.463,0,0,1-1.765.041,7.422,7.422,0,0,1-3.206-1.151,1.777,1.777,0,0,0-.395-.2.527.527,0,0,0-.267.108l-.169-.111,1.131-1.964.169.106c0,.037-.007.064-.008.08a.682.682,0,0,0,.21.539,3.375,3.375,0,0,0,1.171.747,5.41,5.41,0,0,0,1.56.428,3.228,3.228,0,0,0,1.426-.127,1.36,1.36,0,0,0,.554-.354.878.878,0,0,0,.247-.511.618.618,0,0,0-.385-.643,5.99,5.99,0,0,0-1.243-.363l-.937-.2a13.019,13.019,0,0,1-1.327-.332,3.5,3.5,0,0,1-.757-.37,2.056,2.056,0,0,1-.791-.925,2.248,2.248,0,0,1-.167-1.176,2.337,2.337,0,0,1,.92-1.683,4.047,4.047,0,0,1,2.977-.61,6.56,6.56,0,0,1,1.483.325,11.428,11.428,0,0,1,1.67.787,1.881,1.881,0,0,0,.422.189.51.51,0,0,0,.316-.11Z" transform="translate(-264.944 -99.986)" fill="none" stroke="#fff" stroke-width="3"/>
    <path id="Path_68" data-name="Path 68" d="M86.369,158.76a1.984,1.984,0,0,1,1.611,1.843,2.183,2.183,0,0,1-.647,1.885,2.675,2.675,0,0,1-.923.567,5.515,5.515,0,0,1-1.35.279l-5.744.566-.019-.2a.63.63,0,0,0,.292-.191.428.428,0,0,0,.058-.3l-.7-7.111a.43.43,0,0,0-.115-.281.633.633,0,0,0-.324-.13l-.019-.2,5.688-.561a5.711,5.711,0,0,1,1.329-.007,2.283,2.283,0,0,1,.916.332,2.027,2.027,0,0,1,.911,1.613,1.844,1.844,0,0,1-.964,1.885m-5.323-.14,3.22-.318a1.793,1.793,0,0,0,1-.316.9.9,0,0,0,.251-.8.877.877,0,0,0-.382-.724,1.825,1.825,0,0,0-1.063-.122l-3.22.317Zm.363,3.676,3.115-.307a2.46,2.46,0,0,0,1.226-.363,1.161,1.161,0,0,0-.178-1.81A2.428,2.428,0,0,0,84.3,159.7l-3.115.307Z" transform="translate(-55.161 -98.876)" fill="#040504"/>
    <path id="Path_69" data-name="Path 69" d="M126.354,151.457a4.965,4.965,0,0,1,3.57.98,4.389,4.389,0,0,1,1.043,5.44,4.571,4.571,0,0,1-4.071,2.3,4.938,4.938,0,0,1-3.551-.98,4.162,4.162,0,0,1-1.143-1.461,4.387,4.387,0,0,1-.415-1.63,4.328,4.328,0,0,1,.509-2.355,4.612,4.612,0,0,1,4.059-2.3m.093,1.432a2.917,2.917,0,0,0-1.966.838,3.057,3.057,0,0,0,.269,4.429,3.209,3.209,0,0,0,4.037-.245,2.815,2.815,0,0,0,.666-1.087,3,3,0,0,0,.154-1.148,2.823,2.823,0,0,0-1.089-2.194,3.039,3.039,0,0,0-2.071-.593" transform="translate(-87.968 -96.26)" fill="#040504"/>
    <path id="Path_70" data-name="Path 70" d="M169.032,150l.2,6.4a.43.43,0,0,0,.1.288.64.64,0,0,0,.314.151l.006.2-2.634.081-.006-.2a.631.631,0,0,0,.3-.17.43.43,0,0,0,.078-.293l-.2-6.4-2.622.08a.422.422,0,0,0-.282.093.622.622,0,0,0-.151.316l-.2.006-.067-2.183.2-.006a.679.679,0,0,0,.173.306.41.41,0,0,0,.284.077l7.08-.217a.436.436,0,0,0,.288-.094.627.627,0,0,0,.151-.316l.2-.006.067,2.183-.2.006a.626.626,0,0,0-.17-.306.437.437,0,0,0-.294-.076Z" transform="translate(-119.867 -93.736)" fill="#040504"/>
    <path id="Path_71" data-name="Path 71" d="M204.95,149.69l.038,6.4a.429.429,0,0,0,.088.29.634.634,0,0,0,.31.159v.2l-2.635.016v-.2a.639.639,0,0,0,.309-.163.431.431,0,0,0,.085-.291l-.038-6.4-2.623.016a.423.423,0,0,0-.284.086.623.623,0,0,0-.159.312h-.2l-.013-2.184h.2a.676.676,0,0,0,.166.31.409.409,0,0,0,.282.083l7.083-.042a.434.434,0,0,0,.29-.087.628.628,0,0,0,.159-.312h.2l.013,2.184h-.2a.624.624,0,0,0-.163-.31.438.438,0,0,0-.292-.084Z" transform="translate(-147.118 -93.563)" fill="#040504"/>
    <path id="Path_72" data-name="Path 72" d="M240.152,156.66l5.19.094a.432.432,0,0,0,.293-.081.641.641,0,0,0,.166-.306l.2,0-.039,2.184-.2,0a.629.629,0,0,0-.155-.312.431.431,0,0,0-.289-.092l-7.429-.135,0-.2a.629.629,0,0,0,.311-.155.427.427,0,0,0,.092-.289l.13-7.144a.43.43,0,0,0-.081-.292.629.629,0,0,0-.307-.167l0-.2,2.635.048,0,.2a.583.583,0,0,0-.312.152.443.443,0,0,0-.092.292Z" transform="translate(-175.961 -94.84)" fill="#040504"/>
    <path id="Path_73" data-name="Path 73" d="M277.083,155.02l-.1,2.312,5.426.24a.42.42,0,0,0,.288-.074.634.634,0,0,0,.175-.3l.2.009-.1,2.182-.2-.009a.634.634,0,0,0-.147-.316.415.415,0,0,0-.28-.1l-7.664-.34.009-.2a.629.629,0,0,0,.316-.147.431.431,0,0,0,.1-.287l.316-7.138a.429.429,0,0,0-.073-.294.635.635,0,0,0-.3-.175l.009-.2,7.515.333a.414.414,0,0,0,.288-.076.643.643,0,0,0,.174-.3l.2.009-.1,2.182-.2-.009a.639.639,0,0,0-.147-.315.411.411,0,0,0-.28-.1l-5.278-.234-.089,2,3.424.152a.42.42,0,0,0,.288-.074.63.63,0,0,0,.174-.3l.2.009-.094,2.132-.2-.009a.653.653,0,0,0-.147-.313.414.414,0,0,0-.28-.1Z" transform="translate(-203.844 -95.276)" fill="#040504"/>
    <path id="Path_74" data-name="Path 74" d="M316.607,157.344l-.207,2.8a.422.422,0,0,0,.068.293.6.6,0,0,0,.294.18l-.014.2-2.628-.2.014-.2a.635.635,0,0,0,.321-.137.42.42,0,0,0,.107-.278l.529-7.132a.432.432,0,0,0-.065-.3.63.63,0,0,0-.3-.183l.015-.2,5.269.391a8.279,8.279,0,0,1,1.519.224,2.717,2.717,0,0,1,.955.462,1.96,1.96,0,0,1,.663.924,2.843,2.843,0,0,1,.144,1.152q-.152,2.061-2.468,2.243l1.463,2.447a5.177,5.177,0,0,0,.574.833.8.8,0,0,0,.476.231l-.014.2-3.043-.225.015-.2c.212-.018.322-.084.331-.2a1.58,1.58,0,0,0-.249-.558l-1.522-2.607Zm.1-1.388,2.838.21a7.206,7.206,0,0,0,.891.029,1.4,1.4,0,0,0,.487-.119,1.126,1.126,0,0,0,.135-1.826,1.328,1.328,0,0,0-.46-.192,7.632,7.632,0,0,0-.889-.1l-2.838-.211Z" transform="translate(-233.732 -96.829)" fill="#040504"/>
    <path id="Path_75" data-name="Path 75" d="M364.109,157.7l-1.214,1.87-.162-.117c.008-.041.014-.074.017-.1q.022-.209-.309-.487a4.411,4.411,0,0,0-2.49-1.038,3.792,3.792,0,0,0-1.167.037,1.384,1.384,0,0,0-.627.306.783.783,0,0,0-.282.511q-.05.473.5.706a9.056,9.056,0,0,0,1.248.32l.955.2a7.961,7.961,0,0,1,1.366.4,3.286,3.286,0,0,1,.9.549,2.121,2.121,0,0,1,.577.864,2.359,2.359,0,0,1,.131,1.077,2.4,2.4,0,0,1-.74,1.513,3.09,3.09,0,0,1-1.7.757,6.463,6.463,0,0,1-1.765.041,7.422,7.422,0,0,1-3.206-1.151,1.777,1.777,0,0,0-.395-.2.527.527,0,0,0-.267.108l-.169-.111,1.131-1.964.169.106c0,.037-.007.064-.008.08a.682.682,0,0,0,.21.539,3.375,3.375,0,0,0,1.171.747,5.41,5.41,0,0,0,1.56.428,3.228,3.228,0,0,0,1.426-.127,1.36,1.36,0,0,0,.554-.354.878.878,0,0,0,.247-.511.618.618,0,0,0-.385-.643,5.99,5.99,0,0,0-1.243-.363l-.937-.2a13.019,13.019,0,0,1-1.327-.332,3.5,3.5,0,0,1-.757-.37,2.056,2.056,0,0,1-.791-.925,2.248,2.248,0,0,1-.167-1.176,2.337,2.337,0,0,1,.92-1.683,4.047,4.047,0,0,1,2.977-.61,6.56,6.56,0,0,1,1.483.325,11.428,11.428,0,0,1,1.67.787,1.881,1.881,0,0,0,.422.189.51.51,0,0,0,.316-.11Z" transform="translate(-264.944 -99.986)" fill="#040504"/>
    <path id="Path_76" data-name="Path 76" d="M417.615,127.059c-.069.776,1.168,2.339,1.91,2.339h5.847c1.1,0,2.125-1.564,2.057-2.339a119.114,119.114,0,0,1,0-19,3.364,3.364,0,0,0-1.772-3.179,1.74,1.74,0,0,0-1.185-.4h-.146a.574.574,0,0,1-.234-.579,14.928,14.928,0,0,0,.117-3.806c-.146-1.779-.143-2.467-.227-3.171a.639.639,0,0,0,.44-.617V95.251a.627.627,0,0,0-.606-.645h-2.59a.627.627,0,0,0-.606.645V96.3a.646.646,0,0,0,.37.594,21.875,21.875,0,0,0-.224,3.194,26.718,26.718,0,0,0,.221,3.8.6.6,0,0,1-.257.586h-.16a1.736,1.736,0,0,0-1.184.4,3.357,3.357,0,0,0-1.772,3.179,119.516,119.516,0,0,1,0,19m.757-18.863a7.949,7.949,0,0,1,.144-1.29,3.615,3.615,0,0,1,.2-.663,1.884,1.884,0,0,1,.457-.634,3.185,3.185,0,0,1,1.18-.634c.386-.127.767-.208,1.086-.307.073-.021.166-.058.2-.069a.14.14,0,0,0,.045-.023.049.049,0,0,0,.018-.046l0-.027-.023-.125c-.066-.365-.108-.722-.139-1.07a28.252,28.252,0,0,1-.026-3.758c.028-.554.065-1.07.106-1.544l.063-.68.033-.316.031-.262.011-.08.005-.04c0-.011-.02-.01-.029-.017a.556.556,0,0,1-.166-.122.9.9,0,0,1-.152-.208,1.163,1.163,0,0,1-.122-.429,1.05,1.05,0,0,1,.113-.668.547.547,0,0,1,.339-.236.49.49,0,0,1,.139-.016.543.543,0,0,0-.423.283.97.97,0,0,0-.036.617,1.025,1.025,0,0,0,.142.36.69.69,0,0,0,.136.151,1.516,1.516,0,0,0,.214.156c.014.01.036.012.042.026l.009.052.025.113-.012.652,0,.679c0,.472.006.986.02,1.535a32.82,32.82,0,0,0,.268,3.668c.048.331.106.665.183,1l.033.137a.982.982,0,0,1,.039.231.569.569,0,0,1-.117.437,1.04,1.04,0,0,1-.373.3,2.8,2.8,0,0,1-.315.134c-.381.134-.733.224-1.066.348a3.624,3.624,0,0,0-.45.2c2.889.2,4.591.423,4.591.423s-2.033.269-5.29.468c-.016.063-.032.128-.044.195a7.5,7.5,0,0,0-.1,1.137c-.018.793.025,1.622.079,2.468a68.92,68.92,0,0,1,.306,7.112c-.023.553-.069,1.1-.142,1.621s-.132,1-.187,1.48c-.11.956-.189,1.85-.234,2.666a17.154,17.154,0,0,0,.13,3.859,4.267,4.267,0,0,0,.293,1.007,1.023,1.023,0,0,0,.194.31,1.028,1.028,0,0,1-.232-.29,4.2,4.2,0,0,1-.407-.991,15.71,15.71,0,0,1-.477-3.9c-.017-.831,0-1.74.053-2.714q.04-.731.105-1.507c.045-.5.063-1.019.062-1.554,0-2.142-.291-4.509-.46-7.031a25.3,25.3,0,0,1-.06-2.565" transform="translate(-312.157 -53.187)" fill="#fff"/>
    <path id="Path_77" data-name="Path 77" d="M9.085,129.243h6.141a2.136,2.136,0,0,0,2.136-2.136V114.025c0-1.179-2.5-8.8-3.471-9.345a3.163,3.163,0,0,1-.134-.792,35.62,35.62,0,0,0,0-7.44.573.573,0,0,0,.334-.5v-.957a.575.575,0,0,0-.334-.5V94.4h-3.2v.09a.577.577,0,0,0-.333.5v.957a.575.575,0,0,0,.333.5,35.674,35.674,0,0,0,0,7.44,3.134,3.134,0,0,1-.133.792c-.967.543-3.471,8.165-3.471,9.345v13.082a2.136,2.136,0,0,0,2.136,2.136m-1.386-15a14.149,14.149,0,0,1,.7-3.427c.69-2.074,1.671-3.877,2.416-5.574l.273-.629.066-.159.033-.078.009-.023v-.029c-.017-.007-.028-.012,0,0v-.211c-.013-.43-.046-.868-.077-1.287l-.2-2.405.279-2.038.23-1.588.011-.075.006-.037c0-.009-.019-.01-.028-.015a.436.436,0,0,1-.112-.075.972.972,0,0,1-.294-.722.819.819,0,0,1,.139-.544.5.5,0,0,1,.292-.178.459.459,0,0,1,.115-.012.5.5,0,0,0-.365.219.75.75,0,0,0-.071.506.84.84,0,0,0,.3.591.863.863,0,0,0,.161.116c.013.009.032.012.04.023l.009.05.019.1-.214,3.668.173,1.116.173,1.228c.054.425.111.856.146,1.32l.01.181a1.412,1.412,0,0,1-.007.231.554.554,0,0,1-.012.062l-.015.047,0,.013-.015.04-.029.08-.059.161-.255.658c-.7,1.764-1.625,3.58-2.279,5.552a14.607,14.607,0,0,0-.7,3.214c-.025.264-.041.527-.051.788l-.023.8-.037,1.547c-.043,2.015-.062,3.832-.073,5.359L8.37,127.76s-.234-1.881-.441-4.935c-.1-1.527-.2-3.347-.241-5.372L7.667,115.9v-.8c0-.278.012-.56.033-.844" transform="translate(-0.947 -53.033)" fill="#fff"/>
    <path id="Path_78" data-name="Path 78" d="M7.836,129.243h6.141a2.136,2.136,0,0,0,2.136-2.136V114.025c0-1.179-2.5-8.8-3.471-9.345a3.163,3.163,0,0,1-.134-.792,35.62,35.62,0,0,0,0-7.44.573.573,0,0,0,.334-.5v-.957a.575.575,0,0,0-.334-.5V94.4H9.3v.09a.576.576,0,0,0-.333.5v.957a.575.575,0,0,0,.333.5,35.674,35.674,0,0,0,0,7.44,3.134,3.134,0,0,1-.133.792c-.967.543-3.471,8.165-3.471,9.345v13.082a2.136,2.136,0,0,0,2.136,2.136m-1.386-15a14.149,14.149,0,0,1,.7-3.427c.69-2.074,1.67-3.877,2.416-5.574l.273-.629.066-.159.033-.078.009-.023v-.029c-.017-.007-.028-.012,0,0l0-.056v-.155c-.013-.43-.046-.868-.077-1.287l-.2-2.405.279-2.038.23-1.588.012-.075.006-.037c0-.009-.019-.01-.028-.015a.436.436,0,0,1-.112-.075.971.971,0,0,1-.294-.722.818.818,0,0,1,.139-.544.5.5,0,0,1,.291-.178.461.461,0,0,1,.115-.012.5.5,0,0,0-.365.219.75.75,0,0,0-.072.506.842.842,0,0,0,.3.591.855.855,0,0,0,.161.116c.013.009.032.012.04.023l.009.05.019.1-.213,3.668.173,1.116.173,1.228c.054.425.11.856.146,1.32l.01.181a1.44,1.44,0,0,1-.007.231.617.617,0,0,1-.012.062l-.015.047,0,.013-.015.04-.029.08-.059.161-.255.658c-.7,1.764-1.625,3.58-2.279,5.552a14.593,14.593,0,0,0-.7,3.214c-.025.264-.041.527-.051.788l-.023.8-.037,1.547c-.043,2.015-.062,3.832-.073,5.359l-.015,4.949s-.234-1.881-.441-4.935c-.1-1.527-.2-3.347-.241-5.372L6.418,115.9v-.8c0-.278.012-.56.033-.844" transform="translate(0 -53.033)" fill="#7f2f03"/>
    <path id="Path_79" data-name="Path 79" d="M416.784,127.059c-.069.776,1.168,2.339,1.91,2.339h5.847c1.1,0,2.125-1.564,2.057-2.339a119.121,119.121,0,0,1,0-19,3.365,3.365,0,0,0-1.773-3.179,1.739,1.739,0,0,0-1.185-.4H423.5a.574.574,0,0,1-.234-.579,14.93,14.93,0,0,0,.117-3.806c-.146-1.779-.144-2.467-.227-3.171a.639.639,0,0,0,.44-.617V95.251a.627.627,0,0,0-.606-.645H420.4a.627.627,0,0,0-.605.645V96.3a.646.646,0,0,0,.37.594,21.877,21.877,0,0,0-.224,3.194,26.684,26.684,0,0,0,.221,3.8.6.6,0,0,1-.257.586h-.16a1.736,1.736,0,0,0-1.184.4,3.358,3.358,0,0,0-1.772,3.179,119.451,119.451,0,0,1,0,19m.757-18.863a7.969,7.969,0,0,1,.144-1.29,3.6,3.6,0,0,1,.2-.663,1.879,1.879,0,0,1,.457-.634,3.185,3.185,0,0,1,1.18-.634c.387-.127.767-.208,1.086-.307.073-.021.166-.058.2-.069a.138.138,0,0,0,.045-.023.048.048,0,0,0,.019-.046l0-.027-.023-.125c-.066-.365-.108-.722-.139-1.07a28.3,28.3,0,0,1-.026-3.758c.028-.554.065-1.07.106-1.544l.063-.68.033-.316.031-.262.011-.08.005-.04c0-.011-.02-.01-.029-.017a.554.554,0,0,1-.167-.122.889.889,0,0,1-.152-.208,1.165,1.165,0,0,1-.122-.429,1.05,1.05,0,0,1,.113-.668.547.547,0,0,1,.338-.236.494.494,0,0,1,.14-.016.5.5,0,0,0-.135.031.51.51,0,0,0-.289.252.967.967,0,0,0-.036.617,1.021,1.021,0,0,0,.142.36.684.684,0,0,0,.136.151,1.49,1.49,0,0,0,.214.156c.014.01.036.012.042.026l.009.052.026.113-.012.652,0,.679c0,.472.006.986.02,1.535a32.768,32.768,0,0,0,.268,3.668c.048.331.106.665.183,1l.033.137a1.023,1.023,0,0,1,.039.231.571.571,0,0,1-.117.437,1.039,1.039,0,0,1-.373.3,2.772,2.772,0,0,1-.315.134c-.381.134-.733.224-1.066.348a3.64,3.64,0,0,0-.45.2c2.89.2,4.591.423,4.591.423s-2.034.269-5.29.468c-.016.063-.032.128-.044.195a7.5,7.5,0,0,0-.1,1.137c-.018.793.025,1.622.079,2.468a68.792,68.792,0,0,1,.306,7.112c-.023.553-.069,1.1-.142,1.621s-.132,1-.187,1.48c-.11.956-.189,1.85-.234,2.666a17.142,17.142,0,0,0,.13,3.859,4.279,4.279,0,0,0,.293,1.007,1.025,1.025,0,0,0,.194.31,1.033,1.033,0,0,1-.232-.29,4.2,4.2,0,0,1-.407-.991,15.705,15.705,0,0,1-.477-3.9c-.017-.831,0-1.74.053-2.714q.04-.731.105-1.507c.045-.5.063-1.019.062-1.554,0-2.142-.291-4.509-.46-7.031a25.336,25.336,0,0,1-.06-2.565" transform="translate(-311.528 -53.187)" fill="#7f2f03"/>
    <g id="Group_45" data-name="Group 45" transform="translate(29.76 40.217)">
      <path id="Path_80" data-name="Path 80" d="M107.663,93.629l-2.313-1.536a.166.166,0,0,0-.113-.035.246.246,0,0,0-.118.066l-.064-.042,1.013-1.525a2.454,2.454,0,0,1,.625-.694,1.319,1.319,0,0,1,.927-.2,1.908,1.908,0,0,1,.8.321,1.6,1.6,0,0,1,.788,1.15,1.312,1.312,0,0,1-.06.575,2.9,2.9,0,0,1-.347.668L107.788,93.9l-.064-.043a.246.246,0,0,0,.015-.135A.168.168,0,0,0,107.663,93.629Zm.156-.756.5-.749a1.4,1.4,0,0,0,.26-.6,1.017,1.017,0,0,0-.562-.931,1.18,1.18,0,0,0-.813-.24.774.774,0,0,0-.372.158,1.7,1.7,0,0,0-.345.4l-.5.75Z" transform="translate(-105.055 -89.644)" fill="#fff"/>
    </g>
    <g id="Group_46" data-name="Group 46" transform="translate(32.57 37.879)">
      <path id="Path_81" data-name="Path 81" d="M119.091,82.591l-2.142-1.77a.163.163,0,0,0-.107-.044.244.244,0,0,0-.125.053l-.059-.049.652-.789.059.049a.23.23,0,0,0-.03.132.165.165,0,0,0,.065.1l2.142,1.77a.166.166,0,0,0,.11.046.233.233,0,0,0,.123-.053l.059.049-.652.789-.06-.049a.242.242,0,0,0,.028-.132A.165.165,0,0,0,119.091,82.591Z" transform="translate(-116.658 -79.991)" fill="#fff"/>
    </g>
    <g id="Group_47" data-name="Group 47" transform="translate(34.645 34.65)">
      <path id="Path_82" data-name="Path 82" d="M127.2,66.656l.276.844-.077.021a.356.356,0,0,0-.026-.03c-.039-.039-.116-.048-.228-.026a1.758,1.758,0,0,0-.944.512,1.53,1.53,0,0,0-.281.371.55.55,0,0,0-.062.271.311.311,0,0,0,.088.215.267.267,0,0,0,.345.021,3.53,3.53,0,0,0,.411-.307l.3-.246a3.162,3.162,0,0,1,.466-.323,1.3,1.3,0,0,1,.395-.14.841.841,0,0,1,.411.037.936.936,0,0,1,.367.229.961.961,0,0,1,.284.608,1.234,1.234,0,0,1-.192.718,2.571,2.571,0,0,1-.429.557,2.957,2.957,0,0,1-1.159.705.7.7,0,0,0-.162.071.207.207,0,0,0-.033.11l-.077.024-.325-.842.075-.026.022.023a.272.272,0,0,0,.22.07,1.344,1.344,0,0,0,.525-.176,2.162,2.162,0,0,0,.523-.376,1.3,1.3,0,0,0,.317-.474.542.542,0,0,0,.029-.26.349.349,0,0,0-.1-.2.246.246,0,0,0-.3-.041,2.371,2.371,0,0,0-.423.294l-.3.24a5.233,5.233,0,0,1-.435.328,1.4,1.4,0,0,1-.3.142.817.817,0,0,1-.484.014.9.9,0,0,1-.406-.243.93.93,0,0,1-.291-.706,1.611,1.611,0,0,1,.556-1.075,2.635,2.635,0,0,1,.472-.379,4.535,4.535,0,0,1,.662-.32.768.768,0,0,0,.164-.083.2.2,0,0,0,.045-.126Z" transform="translate(-125.226 -66.656)" fill="#fff"/>
    </g>
    <g id="Group_48" data-name="Group 48" transform="translate(37.181 31.511)">
      <path id="Path_83" data-name="Path 83" d="M137.744,55.055l1.566,2.013a.169.169,0,0,0,.1.07.251.251,0,0,0,.137-.025l.048.062-.828.645-.048-.062a.254.254,0,0,0,.058-.126.172.172,0,0,0-.044-.112l-1.566-2.013-.825.641a.17.17,0,0,0-.069.1.254.254,0,0,0,.025.137l-.062.048-.534-.687.062-.048a.267.267,0,0,0,.127.057A.164.164,0,0,0,136,55.71l2.227-1.733a.174.174,0,0,0,.07-.1.247.247,0,0,0-.025-.137l.062-.048.534.687-.062.048a.247.247,0,0,0-.126-.058.172.172,0,0,0-.112.044Z" transform="translate(-135.701 -53.694)" fill="#fff"/>
    </g>
    <g id="Group_49" data-name="Group 49" transform="translate(40.812 30.496)">
      <path id="Path_84" data-name="Path 84" d="M152.5,52.6l-1.537-2.4a.167.167,0,0,0-.09-.077.258.258,0,0,0-.139.013l-.042-.066.884-.566.042.066a.234.234,0,0,0-.07.119.174.174,0,0,0,.033.115l1.537,2.4a.172.172,0,0,0,.093.079.237.237,0,0,0,.137-.013l.043.067-.884.566-.043-.066a.253.253,0,0,0,.069-.121A.172.172,0,0,0,152.5,52.6Z" transform="translate(-150.694 -49.501)" fill="#fff"/>
    </g>
    <g id="Group_50" data-name="Group 50" transform="translate(42.84 29.303)">
      <path id="Path_85" data-name="Path 85" d="M161.147,47.145l1.838-.947a.171.171,0,0,0,.087-.084.253.253,0,0,0,0-.139l.07-.036.4.773-.07.036a.255.255,0,0,0-.113-.08.171.171,0,0,0-.119.022l-2.63,1.356-.036-.07a.251.251,0,0,0,.08-.113.172.172,0,0,0-.022-.119l-1.3-2.53a.174.174,0,0,0-.084-.087.256.256,0,0,0-.139,0l-.036-.07.933-.481.036.07a.235.235,0,0,0-.081.112.177.177,0,0,0,.023.12Z" transform="translate(-159.068 -44.576)" fill="#fff"/>
    </g>
    <g id="Group_51" data-name="Group 51" transform="translate(46.78 27.49)">
      <path id="Path_86" data-name="Path 86" d="M177.143,39.78l1.94-.713a.171.171,0,0,0,.1-.072.253.253,0,0,0,.018-.138l.074-.027.3.816-.074.027a.254.254,0,0,0-.1-.093.171.171,0,0,0-.121.008L176.5,40.608l-.027-.074a.249.249,0,0,0,.094-.1.169.169,0,0,0-.008-.121l-.982-2.671a.17.17,0,0,0-.072-.1.253.253,0,0,0-.138-.018l-.027-.074.985-.362.027.074a.233.233,0,0,0-.094.1.176.176,0,0,0,.008.122Z" transform="translate(-175.337 -37.089)" fill="#fff"/>
    </g>
    <g id="Group_52" data-name="Group 52" transform="translate(50.939 25.537)">
      <path id="Path_87" data-name="Path 87" d="M193.8,31.541l.2.9,2.109-.48a.169.169,0,0,0,.1-.059.257.257,0,0,0,.035-.134l.077-.017.193.848-.077.017a.254.254,0,0,0-.09-.106.166.166,0,0,0-.118-.008l-2.979.679-.018-.077a.252.252,0,0,0,.106-.09.172.172,0,0,0,.008-.121l-.632-2.775a.172.172,0,0,0-.059-.105.254.254,0,0,0-.134-.035l-.017-.077,2.921-.665a.165.165,0,0,0,.1-.059.255.255,0,0,0,.035-.134l.077-.017.193.848-.077.018a.255.255,0,0,0-.09-.105.165.165,0,0,0-.118-.009l-2.052.467.177.779,1.331-.3a.168.168,0,0,0,.1-.059.256.256,0,0,0,.035-.134l.077-.017.189.829-.077.017a.264.264,0,0,0-.089-.1.163.163,0,0,0-.119-.01Z" transform="translate(-192.513 -29.023)" fill="#fff"/>
    </g>
    <g id="Group_53" data-name="Group 53" transform="translate(55.519 25.257)">
      <path id="Path_88" data-name="Path 88" d="M212.491,29.978l.1,1.112a.169.169,0,0,0,.046.111.237.237,0,0,0,.127.052l.007.079-1.046.092-.007-.079a.25.25,0,0,0,.117-.075.165.165,0,0,0,.024-.116l-.251-2.837a.169.169,0,0,0-.045-.112.252.252,0,0,0-.128-.053l-.007-.078,2.1-.185a3.334,3.334,0,0,1,.611-.01,1.09,1.09,0,0,1,.405.12.784.784,0,0,1,.32.32,1.135,1.135,0,0,1,.131.444.918.918,0,0,1-.826,1.04l.732.868a2.073,2.073,0,0,0,.279.291.317.317,0,0,0,.2.06l.007.078-1.211.107-.007-.079c.082-.02.121-.054.117-.1a.632.632,0,0,0-.134-.2l-.766-.927Zm-.049-.552,1.129-.1a2.884,2.884,0,0,0,.352-.046.55.55,0,0,0,.183-.078.448.448,0,0,0-.064-.726.532.532,0,0,0-.193-.046,3.113,3.113,0,0,0-.356.018l-1.129.1Z" transform="translate(-211.427 -27.869)" fill="#fff"/>
    </g>
    <g id="Group_54" data-name="Group 54" transform="translate(59.944 25.125)">
      <path id="Path_89" data-name="Path 89" d="M231.855,29.366l-.046,1.148a.17.17,0,0,0,.031.117.257.257,0,0,0,.12.069l0,.079-1.054-.042,0-.079a.272.272,0,0,0,.128-.059.163.163,0,0,0,.041-.114l.046-1.148L230.1,27.765a1.576,1.576,0,0,0-.21-.273.366.366,0,0,0-.187-.09l0-.079,1.327.053,0,.079q-.166.02-.171.146a.529.529,0,0,0,.093.2l.57.923.659-.874a.489.489,0,0,0,.109-.193.127.127,0,0,0-.04-.1.23.23,0,0,0-.119-.057l0-.079,1.3.052,0,.079a.364.364,0,0,0-.194.075,1.567,1.567,0,0,0-.231.256Z" transform="translate(-229.699 -27.323)" fill="#fff"/>
    </g>
    <text id="_" data-name=" " transform="translate(64.111 25.415) rotate(7.287)" fill="#040504" font-size="1" font-family="SegoeUI-Bold, Segoe UI" font-weight="700"><tspan x="0" y="0"> </tspan></text>
    <g id="Group_55" data-name="Group 55" transform="translate(65.874 25.671)">
      <path id="Path_90" data-name="Path 90" d="M254.4,32.637l.635-2.774a.17.17,0,0,0-.008-.12.252.252,0,0,0-.106-.09l.018-.077,1.829.419a2.51,2.51,0,0,1,.891.348,1.349,1.349,0,0,1,.532.814,1.955,1.955,0,0,1-.017.883,1.645,1.645,0,0,1-.817,1.173,1.347,1.347,0,0,1-.573.151,2.974,2.974,0,0,1-.766-.091l-1.829-.419.018-.077a.251.251,0,0,0,.135-.035A.171.171,0,0,0,254.4,32.637Zm.782-.124.9.206a1.431,1.431,0,0,0,.673.031,1.041,1.041,0,0,0,.689-.876,1.211,1.211,0,0,0-.065-.867.794.794,0,0,0-.286-.3,1.734,1.734,0,0,0-.509-.186l-.9-.206Z" transform="translate(-254.188 -29.576)" fill="#fff"/>
    </g>
    <g id="Group_56" data-name="Group 56" transform="translate(70.374 26.921)">
      <path id="Path_91" data-name="Path 91" d="M273,37.729l.923-2.695a.169.169,0,0,0,0-.119.253.253,0,0,0-.1-.1l.026-.075.993.34-.026.075a.231.231,0,0,0-.137.02.172.172,0,0,0-.07.1l-.923,2.695a.173.173,0,0,0,0,.122.241.241,0,0,0,.095.1l-.025.075-.993-.34.025-.074a.253.253,0,0,0,.138-.021A.17.17,0,0,0,273,37.729Z" transform="translate(-272.77 -34.741)" fill="#fff"/>
    </g>
    <g id="Group_57" data-name="Group 57" transform="translate(72.375 28.064)">
      <path id="Path_92" data-name="Path 92" d="M285.116,40.663l-.693.555-.046-.064a.353.353,0,0,0,.018-.035c.023-.051,0-.125-.055-.223a1.757,1.757,0,0,0-.812-.7,1.514,1.514,0,0,0-.446-.132.548.548,0,0,0-.275.037.312.312,0,0,0-.17.158.267.267,0,0,0,.1.33,3.6,3.6,0,0,0,.432.277l.336.2a3.175,3.175,0,0,1,.466.323,1.321,1.321,0,0,1,.27.32.849.849,0,0,1,.11.4.942.942,0,0,1-.086.424A.958.958,0,0,1,283.8,43a1.232,1.232,0,0,1-.739.073,2.589,2.589,0,0,1-.673-.205,2.955,2.955,0,0,1-1.068-.836.679.679,0,0,0-.124-.126.213.213,0,0,0-.114.007l-.05-.063.673-.6.05.061-.013.029a.271.271,0,0,0,.012.23A1.352,1.352,0,0,0,282.1,42a2.157,2.157,0,0,0,.536.357,1.284,1.284,0,0,0,.555.13.543.543,0,0,0,.254-.064.351.351,0,0,0,.158-.162.246.246,0,0,0-.065-.292,2.41,2.41,0,0,0-.425-.293l-.33-.193a5.172,5.172,0,0,1-.46-.292,1.375,1.375,0,0,1-.24-.234.816.816,0,0,1-.184-.449.9.9,0,0,1,.084-.465.933.933,0,0,1,.558-.521,1.612,1.612,0,0,1,1.2.142,2.6,2.6,0,0,1,.52.308,4.542,4.542,0,0,1,.533.507.76.76,0,0,0,.136.124.2.2,0,0,0,.133,0Z" transform="translate(-281.03 -39.459)" fill="#fff"/>
    </g>
    <g id="Group_58" data-name="Group 58" transform="translate(76.812 29.413)">
      <path id="Path_93" data-name="Path 93" d="M301.586,46.7l-1.336,2.172a.171.171,0,0,0-.031.117.25.25,0,0,0,.071.119l-.041.067-.894-.55.041-.067a.251.251,0,0,0,.139.01.172.172,0,0,0,.09-.08l1.336-2.172-.89-.547a.17.17,0,0,0-.114-.031.249.249,0,0,0-.12.072l-.067-.041.455-.741.067.041a.273.273,0,0,0-.009.14.164.164,0,0,0,.078.088l2.4,1.478a.174.174,0,0,0,.117.032.246.246,0,0,0,.119-.072l.067.041-.456.741-.067-.041a.248.248,0,0,0,.01-.139.174.174,0,0,0-.081-.09Z" transform="translate(-299.355 -45.031)" fill="#fff"/>
    </g>
    <g id="Group_59" data-name="Group 59" transform="translate(78.978 31.982)">
      <path id="Path_94" data-name="Path 94" d="M309.844,57.735l-.7.862a.165.165,0,0,0-.044.111.237.237,0,0,0,.055.125l-.049.061-.811-.656.049-.061a.247.247,0,0,0,.135.028.166.166,0,0,0,.1-.066l1.78-2.2a.169.169,0,0,0,.046-.111.253.253,0,0,0-.055-.127l.049-.061,1.626,1.315a3.326,3.326,0,0,1,.444.415,1.088,1.088,0,0,1,.207.366.777.777,0,0,1,.008.45,1.132,1.132,0,0,1-.213.407.913.913,0,0,1-1.308.174l-.076,1.126a2.075,2.075,0,0,0,0,.4.318.318,0,0,0,.1.183l-.049.061-.939-.759.049-.061c.073.042.124.045.153.01a.619.619,0,0,0,.044-.238l.093-1.191Zm.347-.428.876.708a2.833,2.833,0,0,0,.284.21.559.559,0,0,0,.185.071.446.446,0,0,0,.456-.564.522.522,0,0,0-.107-.166,2.98,2.98,0,0,0-.266-.233l-.876-.708Z" transform="translate(-308.297 -55.639)" fill="#fff"/>
    </g>
    <g id="Group_60" data-name="Group 60" transform="translate(82.379 35.104)">
      <path id="Path_95" data-name="Path 95" d="M322.635,70.83l1.994-2.009a.166.166,0,0,0,.055-.1.249.249,0,0,0-.042-.131l.055-.056.74.735-.055.056a.234.234,0,0,0-.131-.042.172.172,0,0,0-.1.057l-1.994,2.009a.171.171,0,0,0-.057.108.235.235,0,0,0,.042.13l-.055.055-.741-.735.055-.056a.25.25,0,0,0,.132.041A.17.17,0,0,0,322.635,70.83Z" transform="translate(-322.343 -68.529)" fill="#fff"/>
    </g>
    <g id="Group_61" data-name="Group 61" transform="translate(84.468 37.406)">
      <path id="Path_96" data-name="Path 96" d="M333.293,81.332l-.245.8-.075-.021a.19.19,0,0,0-.022-.128.882.882,0,0,0-.248-.117,3.431,3.431,0,0,1-.7-.341,2.443,2.443,0,0,1-.5-.476,2.126,2.126,0,0,1-.532-1.242,1.573,1.573,0,0,1,.121-.707,1.7,1.7,0,0,1,.506-.67,1.652,1.652,0,0,1,1.042-.394,1.935,1.935,0,0,1,1.543.823,2.44,2.44,0,0,1,.366.58,3.429,3.429,0,0,1,.2.757.886.886,0,0,0,.068.265.191.191,0,0,0,.12.047l.007.077-.835.081-.008-.079a.523.523,0,0,0,.054-.038.19.19,0,0,0,.064-.132,1.02,1.02,0,0,0-.022-.263,1.843,1.843,0,0,0-.392-.865,1.377,1.377,0,0,0-.8-.526,1.156,1.156,0,0,0-1.356,1.109,1.374,1.374,0,0,0,.357.888,1.84,1.84,0,0,0,.771.556,1.022,1.022,0,0,0,.255.074.189.189,0,0,0,.142-.037.485.485,0,0,0,.046-.044Z" transform="translate(-330.969 -78.038)" fill="#fff"/>
    </g>
    <g id="Group_62" data-name="Group 62" transform="translate(87.152 40.468)">
      <path id="Path_97" data-name="Path 97" d="M344.893,92.771l-2.154,1.336a.17.17,0,0,0-.08.09.251.251,0,0,0,.01.138l-.066.041-.55-.886.067-.042a.248.248,0,0,0,.119.071.171.171,0,0,0,.116-.032l2.154-1.336-.547-.882a.168.168,0,0,0-.088-.078.244.244,0,0,0-.138.011l-.041-.067.735-.456.041.067a.264.264,0,0,0-.07.12.161.161,0,0,0,.03.112l1.478,2.382a.171.171,0,0,0,.089.08.253.253,0,0,0,.138-.011l.041.067-.735.456-.041-.067a.245.245,0,0,0,.071-.119.176.176,0,0,0-.032-.116Z" transform="translate(-342.054 -90.679)" fill="#fff"/>
    </g>
  </g>
</svg>
